<?xml version="1.0" encoding="utf-8"?>
<!-- Generator: Adobe Illustrator 16.0.0, SVG Export Plug-In . SVG Version: 6.00 Build 0)  -->
<!DOCTYPE svg PUBLIC "-//W3C//DTD SVG 1.1//EN" "http://www.w3.org/Graphics/SVG/1.1/DTD/svg11.dtd">
<svg version="1.1" id="Layer_1" xmlns="http://www.w3.org/2000/svg" xmlns:xlink="http://www.w3.org/1999/xlink" x="0px" y="0px"
	 width="30.833px" height="29.667px" viewBox="0 0 30.833 29.667" enable-background="new 0 0 30.833 29.667" xml:space="preserve">
<g display="none">
	<rect x="-693.833" y="-706" display="inline" fill="#181A27" width="960" height="308.657"/>
	<rect x="-693.833" y="-397.343" display="inline" fill="#A2E0F9" width="960" height="496.343"/>
	<rect x="-693.833" y="99.079" display="inline" fill="#5C7CCC" width="960" height="594.921"/>
	<rect x="-446.211" y="-622.362" display="inline" fill="none" width="472.973" height="180.918"/>
	<text transform="matrix(1 0 0 1 -261.0234 -551.3633)" display="inline"><tspan x="0" y="0" fill="#FFFFFF" font-family="'HelveticaNeueLTStd-Th'" font-size="100">32</tspan><tspan x="-83.22" y="56" fill="#FFFFFF" font-family="'HelveticaNeueLTStd-Lt'" font-size="48">Tab-Bar Icons</tspan><tspan x="-1.38" y="95" fill="#437CFF" font-family="'HelveticaNeueLTStd-Lt'" font-size="24">IOS 7 Style </tspan></text>
	<rect x="-446.211" y="-343.878" display="inline" fill="none" width="472.973" height="26.471"/>
	
		<text transform="matrix(1 0 0 1 -256.7642 -326.8384)" display="inline" fill="#415560" font-family="'HelveticaNeueLTStd-Lt'" font-size="24">line icons</text>
	<g display="inline">
		<path fill="#415560" d="M-284.225-347.622c-6.904,0-12.5,5.596-12.5,12.5s5.596,12.5,12.5,12.5s12.5-5.596,12.5-12.5
			S-277.32-347.622-284.225-347.622z M-284.225-323.622c-6.341,0-11.5-5.159-11.5-11.5s5.159-11.5,11.5-11.5s11.5,5.159,11.5,11.5
			S-277.884-323.622-284.225-323.622z"/>
		<polygon fill="#415560" points="-284.938,-332.139 -284.231,-331.432 -283.524,-332.139 -282.348,-333.315 -278.575,-337.088 
			-279.282,-337.795 -284.231,-332.846 -289.158,-337.772 -289.865,-337.065 -287.041,-334.241 		"/>
	</g>
	<rect x="-446.211" y="151.382" display="inline" fill="none" width="472.973" height="26.471"/>
	
		<text transform="matrix(1 0 0 1 -254.2319 168.4219)" display="inline" fill="#FFFFFF" font-family="'HelveticaNeueLTStd-Lt'" font-size="24">full icons</text>
	<path display="inline" fill="#FFFFFF" d="M-284.225,147.638c-6.904,0-12.5,5.596-12.5,12.5s5.596,12.5,12.5,12.5
		s12.5-5.596,12.5-12.5S-277.32,147.638-284.225,147.638z M-282.348,161.945l-1.176,1.177l-0.707,0.707l-0.707-0.707l-2.103-2.104
		l-2.824-2.823l0.707-0.707l4.926,4.927l4.95-4.95l0.707,0.707L-282.348,161.945z"/>
	<rect x="-446.211" y="610.622" display="inline" fill="none" width="472.973" height="35.996"/>
	
		<text transform="matrix(1 0 0 1 -259.9194 627.6621)" display="inline" fill="#FFFFFF" font-family="'HelveticaNeueLTStd-Lt'" font-size="24">30 x 30 px</text>
</g>
<path fill="#415560" d="M-423.607-262.506l-5-5h-11v4h-6v22h16v-4h6V-262.506z M-428.607-266.092l3.586,3.586h-3.586V-266.092z
	 M-444.607-242.506v-20h9v5h5v15H-444.607z M-434.607-262.092l3.586,3.586h-3.586V-262.092z M-429.607-246.506v-12l-5-5h-4v-3h9v5h5
	v15H-429.607z"/>
<g>
	<polygon fill="#415560" points="-349.932,-253.845 -344.85,-248.763 -339.768,-253.845 -340.475,-254.552 -344.35,-250.677 
		-344.35,-266.506 -345.35,-266.506 -345.35,-250.677 -349.225,-254.552 	"/>
	<polygon fill="#415560" points="-342.35,-261.506 -342.35,-260.506 -336.35,-260.506 -336.35,-243.506 -353.35,-243.506 
		-353.35,-260.506 -347.35,-260.506 -347.35,-261.506 -354.35,-261.506 -354.35,-242.506 -335.35,-242.506 -335.35,-261.506 	"/>
</g>
<g>
	<polygon fill="#415560" points="-249.955,-255.167 -255.037,-260.25 -260.119,-255.167 -259.412,-254.46 -255.537,-258.335 
		-255.537,-242.506 -254.537,-242.506 -254.537,-258.335 -250.662,-254.46 	"/>
	<polygon fill="#415560" points="-257.537,-247.506 -257.537,-248.506 -263.537,-248.506 -263.537,-265.506 -246.537,-265.506 
		-246.537,-248.506 -252.537,-248.506 -252.537,-247.506 -245.537,-247.506 -245.537,-266.506 -264.537,-266.506 -264.537,-247.506 
			"/>
</g>
<g>
	<polygon fill="#FFFFFF" points="-434.038,238.844 -429.038,238.844 -434.038,233.844 	"/>
	<polygon fill="#FFFFFF" points="-435.038,238.844 -435.038,233.844 -438.038,233.844 -439.038,233.844 -440.609,233.844 
		-445.038,233.844 -445.038,255.844 -429.038,255.844 -429.038,254.606 -429.038,251.844 -429.038,250.844 -429.038,239.844 
		-435.038,239.844 	"/>
	<polygon fill="#FFFFFF" points="-428.038,229.844 -428.038,234.844 -423.038,234.844 	"/>
	<polygon fill="#FFFFFF" points="-429.038,234.844 -429.038,229.844 -432.038,229.844 -433.038,229.844 -434.609,229.844 
		-439.038,229.844 -439.038,232.844 -438.038,232.844 -434.038,232.844 -433.624,232.844 -433.331,233.137 -428.331,238.137 
		-428.038,238.43 -428.038,238.844 -428.038,250.844 -428.038,251.844 -423.038,251.844 -423.038,250.606 -423.038,247.844 
		-423.038,246.844 -423.038,235.844 -429.038,235.844 	"/>
</g>
<polygon fill="#FFFFFF" points="-343.82,233.344 -343.82,244.173 -339.945,240.298 -339.238,241.005 -344.32,246.087 
	-349.402,241.005 -348.695,240.298 -344.82,244.173 -344.82,233.344 -353.82,233.344 -353.82,252.344 -334.82,252.344 
	-334.82,233.344 "/>
<polygon fill="#FFFFFF" points="-253.1,252.344 -253.1,241.515 -249.225,245.39 -248.518,244.683 -253.6,239.601 -258.682,244.683 
	-257.975,245.39 -254.1,241.515 -254.1,252.344 -263.1,252.344 -263.1,233.344 -244.1,233.344 -244.1,252.344 "/>
<path fill="#415560" d="M28.822-167.488h-10.33l-3.17-9.943l-3.171,9.943H1.822l8.37,6.116l-3.214,9.94l8.344-6.167l8.344,6.167
	l-3.214-9.94L28.822-167.488z M21.757-154.085l-5.84-4.318l-0.595-0.438l-0.595,0.438l-5.84,4.318l2.256-6.979l0.223-0.688
	l-0.584-0.427l-5.896-4.309h7.266h0.73l0.223-0.696l2.218-6.955l2.217,6.955l0.223,0.696h0.73h7.267l-5.896,4.309l-0.584,0.427
	l0.223,0.688L21.757-154.085z"/>
<g>
	<polygon fill="#FFFFFF" points="15.164,318.411 18.334,328.354 28.664,328.354 20.294,334.471 23.508,344.411 15.164,338.244 
		6.82,344.411 10.034,334.471 1.664,328.354 11.993,328.354 	"/>
</g>
<path fill="#415560" d="M-154.224-266.01h-9c-0.602,0-1.135,0.271-1.501,0.692c-0.366-0.421-0.899-0.692-1.501-0.692h-9
	c-1.105,0-2,0.896-2,2v17.008c0,1.104,0.895,2,2,2h9c0.01,0,0.02-0.004,0.029-0.004c0.531,0.014,0.961,0.442,0.973,0.974v1.03h1
	v-0.555h0.01v-0.451c0-0.541,0.432-0.98,0.969-0.997c0.008,0,0.015,0.003,0.021,0.003h9c1.105,0,2-0.896,2-2v-17.008
	C-152.224-265.114-153.118-266.01-154.224-266.01z M-176.226-247.002v-17.008c0-0.551,0.448-1,1-1h9c0.551,0,1,0.449,1,1v17.008
	c0,0.551-0.449,1-1,1h-9C-175.777-246.002-176.226-246.452-176.226-247.002z M-153.224-247.002c0,0.551-0.448,1-1,1h-9
	c-0.551,0-1-0.449-1-1v-0.409v-16.599c0-0.551,0.449-1,1-1h9c0.552,0,1,0.449,1,1V-247.002z"/>
<g>
	<path fill="#415560" d="M-164.725-173.432c-5.483,0-9.758,3.433-15,8.997c4.517,4.758,8.307,9.003,15,9.003s11.613-5.374,15-8.903
		C-153.191-168.468-158.111-173.432-164.725-173.432z M-164.725-156.432c-5.941,0-9.529-3.686-13.621-8.003
		c4.869-5.076,8.74-7.997,13.621-7.997c5.777,0,10.293,4.167,13.653,8.058C-154.375-160.929-158.85-156.432-164.725-156.432z"/>
	<path fill="#415560" d="M-164.725-170.431c-3.309,0-6,2.691-6,5.999s2.691,5.999,6,5.999s6-2.691,6-5.999
		S-161.416-170.431-164.725-170.431z M-164.725-159.433c-2.757,0-5-2.242-5-4.999s2.243-4.999,5-4.999s5,2.242,5,4.999
		S-161.968-159.433-164.725-159.433z"/>
	<path fill="#415560" d="M-164.725-168.452c-2.217,0-4.02,1.804-4.02,4.021c0,2.216,1.803,4.02,4.02,4.02s4.02-1.804,4.02-4.02
		C-160.705-166.648-162.508-168.452-164.725-168.452z M-164.725-161.412c-1.666,0-3.02-1.355-3.02-3.02
		c0-1.665,1.354-3.021,3.02-3.021s3.02,1.355,3.02,3.021C-161.705-162.768-163.059-161.412-164.725-161.412z"/>
</g>
<g>
	<path fill="#FFFFFF" d="M-163.725,322.411c-5.483,0-9.758,3.433-15,8.997c4.517,4.758,8.307,9.003,15,9.003s11.613-5.374,15-8.903
		C-152.191,327.375-157.111,322.411-163.725,322.411z M-163.725,337.41c-3.309,0-6-2.691-6-5.999s2.691-5.999,6-5.999
		s6,2.691,6,5.999S-160.416,337.41-163.725,337.41z"/>
	<path fill="#FFFFFF" d="M-163.725,327.391c-2.217,0-4.02,1.804-4.02,4.021c0,2.216,1.803,4.02,4.02,4.02s4.02-1.804,4.02-4.02
		C-159.705,329.194-161.508,327.391-163.725,327.391z"/>
</g>
<path fill="#415560" d="M-524.351-176.432c-6.628,0-12,5.372-12,12s5.372,12,12,12s12-5.372,12-12S-517.723-176.432-524.351-176.432
	z M-524.351-175.432c6.065,0,11,4.935,11,11c0,2.669-0.957,5.118-2.545,7.026c-1.087-0.456-3.676-1.355-5.286-1.832
	c-0.137-0.043-0.158-0.049-0.158-0.618c0-0.47,0.193-0.942,0.382-1.343c0.204-0.436,0.446-1.167,0.533-1.823
	c0.243-0.282,0.575-0.839,0.787-1.899c0.187-0.936,0.1-1.275-0.024-1.596c-0.013-0.033-0.026-0.066-0.035-0.1
	c-0.047-0.219,0.017-1.358,0.177-2.242c0.11-0.606-0.028-1.896-0.862-2.963c-0.527-0.674-1.537-1.502-3.38-1.617l-1.011,0.001
	c-1.812,0.114-2.82,0.942-3.348,1.616c-0.836,1.066-0.975,2.356-0.863,2.963c0.16,0.884,0.225,2.023,0.178,2.238
	c-0.01,0.037-0.023,0.07-0.037,0.104c-0.123,0.32-0.211,0.66-0.023,1.596c0.213,1.061,0.543,1.617,0.787,1.899
	c0.086,0.656,0.328,1.388,0.533,1.823c0.15,0.318,0.22,0.751,0.22,1.363c0,0.568-0.021,0.576-0.149,0.616
	c-1.658,0.489-4.293,1.442-5.275,1.872c-1.618-1.916-2.599-4.387-2.599-7.085C-535.351-170.497-530.416-175.432-524.351-175.432z
	 M-532.026-156.567c1.126-0.459,3.367-1.259,4.842-1.695c0.857-0.27,0.857-0.992,0.857-1.572c0-0.48-0.032-1.189-0.314-1.789
	c-0.193-0.411-0.414-1.115-0.462-1.666c-0.012-0.129-0.072-0.248-0.17-0.334c-0.141-0.123-0.43-0.578-0.613-1.494
	c-0.145-0.725-0.084-0.883-0.023-1.037c0.025-0.064,0.049-0.129,0.068-0.202c0.121-0.438-0.014-1.881-0.159-2.681
	c-0.063-0.348,0.017-1.336,0.667-2.168c0.584-0.745,1.467-1.16,2.592-1.232l0.948-0.001c1.157,0.073,2.04,0.488,2.623,1.233
	c0.65,0.832,0.729,1.82,0.667,2.168c-0.146,0.8-0.279,2.242-0.16,2.68c0.021,0.074,0.045,0.139,0.07,0.203
	c0.059,0.154,0.121,0.312-0.024,1.037c-0.184,0.916-0.472,1.371-0.614,1.494c-0.097,0.086-0.157,0.205-0.168,0.334
	c-0.049,0.551-0.27,1.255-0.463,1.666c-0.222,0.471-0.477,1.098-0.477,1.769c0,0.58,0,1.302,0.867,1.575
	c1.411,0.417,3.665,1.191,4.856,1.66c-1.989,1.969-4.722,3.188-7.734,3.188C-527.335-153.432-530.042-154.631-532.026-156.567z"/>
<path fill="#FFFFFF" d="M-524.85,319.411c-6.628,0-12,5.372-12,12s5.372,12,12,12s12-5.372,12-12S-518.222,319.411-524.85,319.411z
	 M-516.395,338.438c-1.087-0.456-3.676-1.355-5.286-1.832c-0.137-0.043-0.158-0.049-0.158-0.618c0-0.47,0.193-0.942,0.382-1.343
	c0.204-0.436,0.446-1.167,0.533-1.823c0.243-0.282,0.575-0.839,0.787-1.899c0.187-0.936,0.1-1.275-0.024-1.596
	c-0.013-0.033-0.026-0.066-0.035-0.1c-0.047-0.219,0.017-1.358,0.177-2.242c0.11-0.606-0.028-1.896-0.862-2.963
	c-0.527-0.674-1.537-1.502-3.38-1.617l-1.011,0.001c-1.812,0.114-2.82,0.942-3.348,1.616c-0.836,1.066-0.975,2.356-0.863,2.963
	c0.16,0.884,0.225,2.023,0.178,2.238c-0.01,0.037-0.023,0.07-0.037,0.104c-0.123,0.32-0.211,0.66-0.023,1.596
	c0.213,1.061,0.543,1.617,0.787,1.899c0.086,0.656,0.328,1.388,0.533,1.823c0.15,0.318,0.22,0.751,0.22,1.363
	c0,0.568-0.021,0.576-0.149,0.616c-1.658,0.489-4.293,1.442-5.275,1.872c-1.618-1.916-2.599-4.387-2.599-7.085
	c0-6.065,4.935-11,11-11s11,4.935,11,11C-513.85,334.08-514.807,336.529-516.395,338.438z"/>
<g>
	<path fill="#FFFFFF" d="M-68.345,501.094h-14c-1.104,0-2,0.896-2,2v20c0,1.104,0.896,2,2,2h14c1.104,0,2-0.896,2-2v-20
		C-66.345,501.989-67.24,501.094-68.345,501.094z M-78.345,521.094h-3v-3h3V521.094z M-78.345,517.093h-3v-3h3V517.093z
		 M-78.345,513.094h-3v-3h3V513.094z M-73.845,521.094h-3v-3h3V521.094z M-73.845,517.093h-3v-3h3V517.093z M-73.845,513.094h-3v-3
		h3V513.094z M-69.345,521.094h-3v-7.001h3V521.094z M-69.345,513.094h-3v-3h3V513.094z M-69.345,508.094h-12v-3h12V508.094z"/>
</g>
<path fill="#415560" d="M-524.351-86.816c-0.003,0-0.007,0-0.011,0c-0.002,0-0.003,0-0.005,0c-0.005,0-0.01,0.001-0.015,0.001
	c-6.891,0.017-12.47,5.606-12.47,12.499s5.579,12.482,12.47,12.499c0.005,0,0.01,0.001,0.015,0.001c0.002,0,0.003,0,0.005,0
	c0.004,0,0.008,0,0.011,0c6.902,0,12.5-5.598,12.5-12.5C-511.851-81.22-517.448-86.816-524.351-86.816z M-523.851-79.336
	c1.325-0.035,2.614-0.211,3.856-0.514c0.375,1.474,0.606,3.172,0.643,5.033h-4.499V-79.336z M-523.851-80.336v-5.401
	c1.349,0.373,2.714,2.171,3.584,4.926C-521.422-80.533-522.619-80.371-523.851-80.336z M-524.851-85.749v5.413
	c-1.241-0.035-2.449-0.2-3.612-0.482C-527.586-83.592-526.207-85.396-524.851-85.749z M-524.851-79.336v4.52h-4.53
	c0.036-1.863,0.27-3.564,0.644-5.039C-527.486-79.55-526.187-79.372-524.851-79.336z M-530.388-74.816h-5.45
	c0.11-2.57,1.068-4.926,2.602-6.791c1.113,0.613,2.294,1.115,3.531,1.49C-530.109-78.521-530.352-76.725-530.388-74.816z
	 M-530.388-73.816c0.036,1.908,0.278,3.705,0.683,5.3c-1.236,0.376-2.418,0.878-3.531,1.491c-1.533-1.865-2.491-4.221-2.602-6.791
	H-530.388z M-529.381-73.816h4.53v4.515c-1.336,0.036-2.636,0.214-3.888,0.521C-529.112-70.255-529.345-71.954-529.381-73.816z
	 M-524.851-68.303v5.419c-1.358-0.354-2.737-2.16-3.614-4.936C-527.301-68.103-526.092-68.268-524.851-68.303z M-523.851-62.896
	v-5.407c1.231,0.035,2.43,0.198,3.585,0.477C-521.136-65.068-522.502-63.269-523.851-62.896z M-523.851-69.302v-4.515h4.499
	c-0.036,1.859-0.268,3.557-0.641,5.028C-521.235-69.09-522.525-69.266-523.851-69.302z M-518.345-73.816h5.481
	c-0.11,2.57-1.067,4.926-2.601,6.791c-1.122-0.618-2.313-1.124-3.562-1.5C-518.623-70.119-518.381-71.912-518.345-73.816z
	 M-518.345-74.816c-0.036-1.906-0.278-3.701-0.682-5.295c1.247-0.377,2.438-0.882,3.56-1.499c1.535,1.866,2.492,4.222,2.604,6.794
	H-518.345z M-516.156-82.374c-0.994,0.53-2.045,0.967-3.141,1.299c-0.585-1.881-1.406-3.415-2.376-4.423
	C-519.544-84.988-517.643-83.887-516.156-82.374z M-527.068-85.489c-0.965,1.007-1.781,2.534-2.364,4.405
	c-1.086-0.331-2.127-0.765-3.112-1.29C-531.068-83.877-529.182-84.975-527.068-85.489z M-532.549-66.262
	c0.986-0.527,2.028-0.961,3.115-1.292c0.582,1.874,1.399,3.403,2.365,4.41C-529.183-63.658-531.07-64.758-532.549-66.262z
	 M-521.674-63.135c0.973-1.008,1.793-2.544,2.378-4.428c1.097,0.333,2.147,0.77,3.144,1.301
	C-517.641-64.748-519.543-63.645-521.674-63.135z"/>
<g>
	<path fill="#FFFFFF" d="M-524.85,409.786c-0.003,0-0.007,0-0.011,0c-0.002,0-0.003,0-0.005,0c-0.005,0-0.01,0.001-0.015,0.001
		c-6.891,0.017-12.47,5.606-12.47,12.499s5.579,12.482,12.47,12.499c0.005,0,0.01,0.001,0.015,0.001c0.002,0,0.003,0,0.005,0
		c0.004,0,0.008,0,0.011,0c6.902,0,12.5-5.598,12.5-12.5C-512.35,415.383-517.947,409.786-524.85,409.786z M-524.82,433.786
		l-0.009-0.001h-0.049c-6.325-0.015-11.472-5.174-11.472-11.499s5.146-11.484,11.47-11.499l0.058-0.001h0.004
		c6.327,0.018,11.469,5.17,11.469,11.5C-513.35,428.612-518.484,433.763-524.82,433.786z"/>
	<path fill="#FFFFFF" d="M-517.359,414.921c-1.358-1.383-3.097-2.39-5.043-2.855c0.887,0.921,1.638,2.323,2.172,4.043
		C-519.229,415.805-518.269,415.405-517.359,414.921z"/>
	<path fill="#FFFFFF" d="M-524.35,411.864v4.916c1.11-0.034,2.19-0.18,3.233-0.432C-521.903,413.86-523.131,412.231-524.35,411.864z
		"/>
	<path fill="#FFFFFF" d="M-520.867,417.229c-1.122,0.272-2.287,0.432-3.482,0.466v4.092h4.067
		C-520.318,420.103-520.527,418.563-520.867,417.229z"/>
	<path fill="#FFFFFF" d="M-528.608,416.343c1.05,0.254,2.14,0.403,3.259,0.438v-4.928
		C-526.576,412.202-527.815,413.837-528.608,416.343z"/>
	<path fill="#FFFFFF" d="M-520.282,422.786h-4.067v4.088c1.195,0.035,2.361,0.193,3.483,0.465
		C-520.527,426.006-520.318,424.468-520.282,422.786z"/>
	<path fill="#FFFFFF" d="M-519.362,421.786h5.009c-0.11-2.335-0.981-4.472-2.376-6.167c-1.024,0.563-2.113,1.025-3.254,1.37
		C-519.617,418.435-519.397,420.06-519.362,421.786z"/>
	<path fill="#FFFFFF" d="M-528.86,427.346c1.131-0.276,2.306-0.437,3.511-0.472v-4.088h-4.096
		C-529.41,424.472-529.199,426.011-528.86,427.346z"/>
	<path fill="#FFFFFF" d="M-529.445,421.786h4.096v-4.092c-1.205-0.035-2.38-0.195-3.51-0.471
		C-529.198,418.56-529.41,420.101-529.445,421.786z"/>
	<path fill="#FFFFFF" d="M-527.334,412.073c-1.932,0.471-3.656,1.474-5.006,2.848c0.9,0.48,1.853,0.877,2.845,1.18
		C-528.962,414.39-528.216,412.993-527.334,412.073z"/>
	<path fill="#FFFFFF" d="M-522.403,432.507c1.948-0.466,3.687-1.475,5.047-2.858c-0.91-0.485-1.87-0.885-2.873-1.188
		C-520.764,430.182-521.514,431.585-522.403,432.507z"/>
	<path fill="#FFFFFF" d="M-519.982,427.579c1.142,0.344,2.23,0.807,3.256,1.371c1.393-1.694,2.264-3.831,2.373-6.164h-5.009
		C-519.397,424.511-519.617,426.134-519.982,427.579z"/>
	<path fill="#FFFFFF" d="M-524.35,427.786v4.922c1.219-0.367,2.447-1.998,3.233-4.489
		C-522.158,427.968-523.239,427.821-524.35,427.786z"/>
	<path fill="#FFFFFF" d="M-529.744,416.983c-1.131-0.342-2.21-0.801-3.228-1.361c-1.393,1.694-2.265,3.831-2.374,6.164h4.979
		C-530.33,420.058-530.11,418.431-529.744,416.983z"/>
	<path fill="#FFFFFF" d="M-525.35,432.72v-4.934c-1.119,0.035-2.21,0.184-3.261,0.438
		C-527.817,430.732-526.577,432.368-525.35,432.72z"/>
	<path fill="#FFFFFF" d="M-530.366,422.786h-4.979c0.109,2.333,0.981,4.47,2.374,6.164c1.018-0.561,2.098-1.02,3.228-1.363
		C-530.11,426.142-530.33,424.515-530.366,422.786z"/>
	<path fill="#FFFFFF" d="M-532.343,429.648c1.351,1.375,3.076,2.38,5.009,2.851c-0.883-0.921-1.63-2.318-2.162-4.031
		C-530.489,428.771-531.441,429.167-532.343,429.648z"/>
</g>
<g>
	<path fill="#415560" d="M-434.601-83.816c-6.076,0-11,4.925-11,11c0,2.758,1.018,5.276,2.693,7.207l-2.572,3.154l0.773,0.632
		l2.494-3.057c1.977,1.896,4.656,3.062,7.611,3.062c2.963,0,5.648-1.173,7.627-3.077l2.492,3.075l0.777-0.63l-2.575-3.178
		c1.668-1.929,2.679-4.44,2.679-7.189C-423.601-78.891-428.526-83.816-434.601-83.816z M-434.601-62.817c-5.514,0-10-4.485-10-9.999
		s4.486-10,10-10c5.515,0,10,4.486,10,10S-429.086-62.817-434.601-62.817z"/>
	<path fill="#415560" d="M-439.63-86.816h-2.971c-2.762,0-5,2.238-5,5v3.009h1.422l6.549-6.586V-86.816z M-440.63-85.806
		l-5.965,5.999h-0.006v-2.009c0-2.206,1.795-4,4-4h1.971V-85.806z"/>
	<path fill="#415560" d="M-426.614-86.816h-2.973v1.423l6.55,6.586h1.423v-3.009C-421.614-84.578-423.854-86.816-426.614-86.816z
		 M-422.614-79.807h-0.007l-5.966-5.999v-0.01h1.973c2.205,0,4,1.794,4,4V-79.807z"/>
	<polygon fill="#415560" points="-434.601,-72.816 -440.113,-72.816 -440.113,-71.816 -433.601,-71.816 -433.601,-80.816 
		-434.601,-80.816 	"/>
</g>
<g>
	<path fill="#FFFFFF" d="M-439.061,409.787h-2.971c-2.762,0-5,2.238-5,5v3.008h1.422l6.549-6.586V409.787z"/>
	<path fill="#FFFFFF" d="M-426.045,409.787h-2.973v1.422l6.55,6.586h1.423v-3.008C-421.045,412.025-423.284,409.787-426.045,409.787
		z"/>
	<path fill="#FFFFFF" d="M-434.031,412.787c-6.076,0-11,4.924-11,11c0,2.758,1.018,5.275,2.693,7.207l-2.572,3.154l0.773,0.631
		l2.494-3.057c1.977,1.896,4.656,3.062,7.611,3.062c2.963,0,5.648-1.172,7.627-3.076l2.492,3.074l0.777-0.629l-2.575-3.178
		c1.668-1.93,2.679-4.441,2.679-7.189C-423.031,417.711-427.957,412.787-434.031,412.787z M-433.031,424.787h-6.513v-1h5.513v-8h1
		V424.787z"/>
</g>
<g>
	<path fill="#415560" d="M-336.381-81.078l0.854-0.854l0.857,0.857l1.061-1.061l-2.422-2.422l-1.061,1.061l0.857,0.857l-0.854,0.854
		c-1.874-1.718-4.313-2.819-7.012-2.993v-2.038h-1.5v2.038c-6,0.388-10.75,5.363-10.75,11.462c0,6.352,5.148,11.5,11.5,11.5
		s11.5-5.148,11.5-11.5C-333.35-76.312-334.505-79.031-336.381-81.078z M-344.85-62.816c-5.789,0-10.5-4.71-10.5-10.5
		s4.711-10.5,10.5-10.5s10.5,4.71,10.5,10.5S-339.061-62.816-344.85-62.816z"/>
	<path fill="#415560" d="M-344.35-74.725v-6.592h-1v6.592c-0.581,0.206-1,0.756-1,1.408s0.419,1.202,1,1.408v2.092h1v-2.092
		c0.581-0.206,1-0.756,1-1.408S-343.769-74.519-344.35-74.725z"/>
</g>
<path fill="#FFFFFF" d="M-335.852,415.524l0.854-0.854l0.857,0.857l1.061-1.061l-2.422-2.422l-1.061,1.061l0.857,0.857l-0.854,0.854
	c-1.874-1.718-4.313-2.819-7.012-2.993v-2.038h-1.5v2.038c-6,0.388-10.75,5.363-10.75,11.462c0,6.352,5.148,11.5,11.5,11.5
	s11.5-5.148,11.5-11.5C-332.82,420.291-333.976,417.571-335.852,415.524z M-343.82,424.694v2.092h-1v-2.092
	c-0.581-0.206-1-0.756-1-1.408s0.419-1.202,1-1.408v-6.592h1v6.592c0.581,0.206,1,0.756,1,1.408S-343.239,424.488-343.82,424.694z"
	/>
<g>
	<path fill="#415560" d="M-256.27-73.449c0.02,0.024,0.047,0.045,0.068,0.068c0.275,0.342,0.691,0.564,1.164,0.564
		c0.828,0,1.5-0.671,1.5-1.5c0-0.44-0.193-0.832-0.494-1.106c-0.039-0.044-0.075-0.089-0.133-0.133l-6.062-4.612
		c-0.177-0.136-0.431-0.143-0.615,0c-0.221,0.17-0.262,0.486-0.092,0.707L-256.27-73.449z"/>
	<path fill="#415560" d="M-255.037-86.815c-0.164,0-0.324,0.019-0.486,0.024v0.519h-0.014v5.455h1v-4.973
		c6.109,0.265,11,5.302,11,11.474c0,6.341-5.158,11.499-11.5,11.499s-11.5-5.158-11.5-11.499c0-3.171,1.29-6.046,3.373-8.128
		l-0.711-0.711c-2.263,2.262-3.662,5.387-3.662,8.839c0,6.903,5.596,12.499,12.5,12.499s12.5-5.596,12.5-12.499
		S-248.133-86.815-255.037-86.815z"/>
</g>
<path fill="#FFFFFF" d="M-253.6,409.786c-6.903,0-12.5,5.597-12.5,12.5s5.597,12.5,12.5,12.5s12.5-5.597,12.5-12.5
	S-246.696,409.786-253.6,409.786z M-259.403,416.435c0.185-0.143,0.438-0.136,0.615,0l6.062,4.612
	c0.058,0.044,0.094,0.089,0.133,0.133c0.301,0.274,0.494,0.666,0.494,1.106c0,0.829-0.672,1.5-1.5,1.5
	c-0.473,0-0.889-0.223-1.164-0.564c-0.021-0.023-0.049-0.044-0.068-0.068l-4.663-6.012
	C-259.665,416.921-259.624,416.604-259.403,416.435z M-253.6,433.771c-6.351,0-11.5-5.149-11.5-11.5
	c0-3.176,1.287-6.051,3.368-8.133l0.711,0.711c-1.901,1.902-3.079,4.527-3.079,7.422c0,5.789,4.71,10.5,10.5,10.5
	s10.5-4.711,10.5-10.5c0-5.621-4.443-10.211-10-10.475v3.969h-1v-3.969v-0.531v-0.482c0.166-0.007,0.332-0.012,0.5-0.012
	c6.351,0,11.5,5.148,11.5,11.5C-242.1,428.622-247.249,433.771-253.6,433.771z"/>
<g>
	<path fill="#415560" d="M-164.725-86.316c-6.627,0-12,5.373-12,12s5.373,12,12,12s12-5.373,12-12S-158.098-86.316-164.725-86.316z
		 M-164.725-63.316c-6.065,0-11-4.935-11-11s4.935-11,11-11s11,4.935,11,11S-158.659-63.316-164.725-63.316z"/>
	<polygon fill="#415560" points="-164.725,-73.316 -170.725,-73.316 -170.725,-72.316 -163.725,-72.316 -163.725,-82.275 
		-164.725,-82.275 	"/>
</g>
<path fill="#FFFFFF" d="M-163.725,410.286c-6.627,0-12,5.373-12,12s5.373,12,12,12s12-5.373,12-12S-157.098,410.286-163.725,410.286
	z M-162.725,424.286h-7v-1h6v-8.959h1V424.286z"/>
<path fill="#FFFFFF" d="M-62.917-153.86l-6.812-6.812c1.369-1.646,2.193-3.761,2.193-6.069c0-5.247-4.253-9.5-9.5-9.5
	c-5.246,0-9.5,4.253-9.5,9.5c0,5.246,4.254,9.5,9.5,9.5c2.309,0,4.423-0.824,6.069-2.193l6.812,6.812L-62.917-153.86z
	 M-85.535-166.741c0-4.688,3.812-8.5,8.5-8.5c4.687,0,8.5,3.812,8.5,8.5c0,4.687-3.813,8.5-8.5,8.5
	C-81.723-158.241-85.535-162.055-85.535-166.741z"/>
<g>
	<path fill="#FFFFFF" d="M-70.347,335.171c1.369-1.646,2.193-3.761,2.193-6.069c0-5.247-4.253-9.5-9.5-9.5
		c-5.246,0-9.5,4.253-9.5,9.5c0,5.246,4.254,9.5,9.5,9.5c2.309,0,4.423-0.824,6.069-2.193l6.812,6.812l1.237-1.237L-70.347,335.171z
		 M-77.653,337.602c-4.688,0-8.5-3.813-8.5-8.5c0-4.688,3.812-8.5,8.5-8.5c4.687,0,8.5,3.812,8.5,8.5
		C-69.153,333.788-72.967,337.602-77.653,337.602z"/>
	<circle fill="#FFFFFF" cx="-77.653" cy="329.164" r="7.5"/>
</g>
<g>
	<path fill="#FFFFFF" d="M-65.226-83.816h-5v-1c0-1.104-0.896-2-2-2h-5c-1.104,0-2,0.896-2,2v1h-5v1h1.029l1.002,19
		c0,1.104,0.896,2,2,2h11c1.104,0,2-0.896,2-2l0.982-19h0.986V-83.816z M-78.226-84.816c0-0.552,0.448-1,1-1h5c0.552,0,1,0.448,1,1
		v1h-7V-84.816z M-68.193-63.868l-0.001,0.025v0.026c0,0.552-0.448,1-1,1h-11c-0.552,0-1-0.448-1-1v-0.026l-0.001-0.026
		l-0.999-18.947h14.982L-68.193-63.868z"/>
	<rect x="-75.226" y="-80.816" fill="#FFFFFF" width="1" height="16"/>
	
		<rect x="-86.215" y="-73.301" transform="matrix(0.064 0.998 -0.998 0.064 -145.8631 9.9092)" fill="#FFFFFF" width="16.002" height="1"/>
	
		<rect x="-71.722" y="-80.832" transform="matrix(0.998 0.0625 -0.0625 0.998 -4.6903 4.309)" fill="#FFFFFF" width="1" height="16.032"/>
</g>
<path fill="#FFFFFF" d="M-70.845,412.786v-1c0-1.104-0.896-2-2-2h-5c-1.104,0-2,0.896-2,2v1h-5v1h1.029l1.002,19
	c0,1.104,0.896,2,2,2h11c1.104,0,2-0.896,2-2l0.982-19h0.986v-1H-70.845z M-78.845,411.786c0-0.552,0.448-1,1-1h5
	c0.552,0,1,0.448,1,1v1h-7V411.786z M-78.82,431.818l-1.023-15.969l0.998-0.064l1.023,15.969L-78.82,431.818z M-74.845,431.786h-1
	v-16h1V431.786z M-71.847,431.817l-0.998-0.062l1.009-16l0.998,0.062L-71.847,431.817z"/>
<path fill="#415560" d="M-67.687-263.006h-14.039l-5.5,6v11h25v-11L-67.687-263.006z M-81.286-262.006h13.158l4.55,5h-7.647
	c0,1.872-1.627,3.386-3.5,3.386s-3.5-1.514-3.5-3.386h-7.643L-81.286-262.006z M-63.226-247.006h-23v-9h7.123
	c0.479,1.914,2.289,3.386,4.377,3.386s3.898-1.472,4.377-3.386h7.123V-247.006z"/>
<path fill="#FFFFFF" d="M-68.306,234.344h-14.039l-5.5,6v11h25v-11L-68.306,234.344z M-81.905,235.344h13.158l4.55,5h-7.647
	c0,1.872-1.627,3.386-3.5,3.386s-3.5-1.514-3.5-3.386h-7.643L-81.905,235.344z"/>
<g>
	<path fill="#415560" d="M27.322-266.006h-24v7h1v16h22v-16h1V-266.006z M25.322-244.006h-20v-15h20V-244.006z M26.322-260.006h-22
		v-5h22V-260.006z"/>
	<path fill="#415560" d="M12.322-252.007h6c1.104,0,2-0.896,2-2s-0.896-2-2-2h-6c-1.104,0-2,0.896-2,2
		S11.218-252.007,12.322-252.007z M12.322-255.007h6c0.552,0,1,0.448,1,1s-0.448,1-1,1h-6c-0.552,0-1-0.448-1-1
		S11.771-255.007,12.322-255.007z"/>
</g>
<g>
	<polygon fill="#FFFFFF" points="3.164,231.344 3.164,238.344 4.164,238.344 5.164,238.344 25.164,238.344 26.164,238.344 
		27.164,238.344 27.164,231.344 	"/>
	<path fill="#FFFFFF" d="M5.164,239.344h-1v15h22v-15h-1H5.164z M12.164,242.343h6c0.552,0,1,0.448,1,1s-0.448,1-1,1h-6
		c-0.552,0-1-0.448-1-1S11.612,242.343,12.164,242.343z"/>
</g>
<path fill="#415560" d="M-515.354-258.01l-7.996-8.496h-0.729h-0.271h-9v24h18v-15.503L-515.354-258.01z M-523.351-265.092
	l6.086,6.586h-6.086V-265.092z M-532.351-243.506v-22h8v8h8v14H-532.351z"/>
<g>
	<polygon fill="#FFFFFF" points="-523.85,230.844 -523.85,238.844 -516.32,238.844 	"/>
	<polygon fill="#FFFFFF" points="-524.85,239.844 -524.85,230.844 -533.85,230.844 -533.85,254.844 -515.85,254.844 
		-515.85,239.844 	"/>
</g>
<path fill="#415560" d="M-522.575,6.312c3.722,0,6.75,3.028,6.75,6.75l-0.004,0.063c-0.003,0.05-0.006,0.1-0.008,0.149l-0.025,1.021
	l1.022,0.003c2.474,0.007,4.486,2.025,4.486,4.499c0,2.467-2.009,4.485-4.472,4.499h-18.527c-2.755-0.003-4.996-2.245-4.996-4.999
	c0-2.137,1.361-4.037,3.387-4.729l0.562-0.192l0.1-0.586c0.246-1.445,1.485-2.494,2.946-2.494c0.449,0,0.898,0.111,1.337,0.332
	l0.912,0.458l0.439-0.921C-527.547,7.824-525.158,6.312-522.575,6.312 M-522.575,5.312c-3.088,0-5.746,1.811-6.992,4.424
	c-0.54-0.271-1.141-0.438-1.786-0.438c-1.979,0-3.61,1.439-3.932,3.326c-2.362,0.807-4.063,3.04-4.063,5.675
	c0,3.312,2.685,5.996,5.995,5.999h18.528v-0.001c3.025-0.016,5.472-2.471,5.472-5.498c0-3.033-2.453-5.49-5.483-5.499
	c0.002-0.079,0.012-0.157,0.012-0.237C-514.825,8.781-518.294,5.312-522.575,5.312L-522.575,5.312z"/>
<path fill="#FFFFFF" d="M-515.336,511.589c0.002-0.079,0.012-0.157,0.012-0.237c0-4.28-3.47-7.75-7.75-7.75
	c-3.088,0-5.746,1.811-6.992,4.424c-0.54-0.271-1.141-0.438-1.786-0.438c-1.979,0-3.61,1.439-3.932,3.326
	c-2.362,0.807-4.063,3.04-4.063,5.675c0,3.312,2.685,5.996,5.995,5.999h18.528v-0.001c3.025-0.016,5.472-2.471,5.472-5.498
	C-509.853,514.055-512.306,511.598-515.336,511.589z"/>
<path fill="#415560" d="M-245.037,7.804v-4h-24v18h4v4h24v-18H-245.037z M-268.037,20.804v-16h22v3h-19v13H-268.037z
	 M-242.037,24.804h-22v-16h22V24.804z"/>
<g>
	<polygon fill="#FFFFFF" points="-241.093,506.094 -243.6,506.094 -244.6,506.094 -263.6,506.094 -263.6,519.094 -263.6,520.094 
		-263.6,520.84 -263.6,524.094 -239.6,524.094 -239.6,506.094 	"/>
	<polygon fill="#FFFFFF" points="-243.6,505.094 -243.6,502.094 -267.6,502.094 -267.6,520.094 -264.6,520.094 -264.6,519.094 
		-264.6,505.094 -244.6,505.094 	"/>
</g>
<g>
	<path fill="#415560" d="M-425.093,13.299c0.002-0.08,0.012-0.157,0.012-0.237c0-4.28-3.47-7.75-7.75-7.75
		c-3.084,0-5.739,1.806-6.986,4.413c-0.54-0.271-1.147-0.428-1.792-0.428c-1.979,0-3.619,1.44-3.939,3.329
		c-2.357,0.809-4.056,3.039-4.056,5.672c0,3.312,2.685,5.996,5.995,5.999h18.528v-0.001c3.024-0.016,5.472-2.471,5.472-5.498
		C-419.609,15.766-422.062,13.308-425.093,13.299z M-425.086,23.296l-0.219,0.001h-18.304c-2.755-0.003-4.996-2.245-4.996-4.999
		c0-2.134,1.358-4.033,3.38-4.727l0.562-0.192l0.099-0.586c0.245-1.446,1.487-2.496,2.954-2.496c0.467,0,0.919,0.108,1.342,0.321
		l0.912,0.458l0.439-0.92c1.118-2.336,3.507-3.845,6.085-3.845c3.723,0,6.75,3.027,6.75,6.75c0,0.021-0.002,0.042-0.004,0.062
		c-0.003,0.05-0.006,0.1-0.007,0.15l-0.025,1.021l1.021,0.004c2.474,0.007,4.486,2.025,4.486,4.499
		C-420.609,21.265-422.618,23.283-425.086,23.296z"/>
	<path fill="#415560" d="M-434.498,19.408c-1.716,0-3.111-1.396-3.111-3.111c0-1.679,1.338-3.041,3.002-3.101v1.459l3.346-1.932
		l-3.346-1.933v1.517c-2.157,0.06-3.891,1.818-3.891,3.989c0,2.209,1.791,4,4,4s4-1.791,4-4h-0.889
		C-431.387,18.013-432.782,19.408-434.498,19.408z"/>
</g>
<path fill="#FFFFFF" d="M-424.524,511.589c0.002-0.08,0.012-0.157,0.012-0.237c0-4.28-3.47-7.75-7.75-7.75
	c-3.084,0-5.739,1.806-6.986,4.413c-0.54-0.271-1.147-0.428-1.792-0.428c-1.979,0-3.619,1.44-3.939,3.329
	c-2.357,0.809-4.056,3.039-4.056,5.672c0,3.312,2.685,5.996,5.995,5.999h18.528v-0.001c3.024-0.016,5.472-2.471,5.472-5.498
	C-419.041,514.056-421.494,511.598-424.524,511.589z M-433.93,518.587c-2.209,0-4-1.791-4-4c0-2.171,1.733-3.93,3.891-3.989v-1.517
	l3.346,1.933l-3.346,1.932v-1.459c-1.664,0.06-3.002,1.422-3.002,3.101c0,1.716,1.396,3.111,3.111,3.111s3.111-1.396,3.111-3.111
	h0.889C-429.93,516.796-431.721,518.587-433.93,518.587z"/>
<path fill="#415560" d="M-168.12,18.309l4.471,8.995l11.424-25l-24.998,11.997L-168.12,18.309z M-167.854,17.333l-6.979-3.071
	l19.166-9.198L-167.854,17.333z M-163.687,24.993l-3.459-6.959l12.295-12.379L-163.687,24.993z"/>
<g>
	<polygon fill="#FFFFFF" points="-152.288,500.92 -175.927,512.266 -167.391,516.023 	"/>
	<polygon fill="#FFFFFF" points="-166.625,516.672 -162.353,525.268 -151.523,501.57 	"/>
</g>
<path fill="#415560" d="M114.902-262.006h-13v-1c0-1.104-0.896-2-2-2h-5c-1.104,0-2,0.896-2,2v3v3.5v10.5c0,1.104,0.896,2,2,2h20
	c1.104,0,2-0.896,2-2v-14C116.902-261.111,116.007-262.006,114.902-262.006z M93.902-263.006c0-0.552,0.449-1,1-1h5
	c0.551,0,1,0.448,1,1v1v1h1h13c0.551,0,1,0.448,1,1v1h-22v-1V-263.006z M114.902-245.006h-20c-0.551,0-1-0.448-1-1v-10.5v-1.5h22v12
	C115.902-245.455,115.453-245.006,114.902-245.006z"/>
<g>
	<path fill="#FFFFFF" d="M117.274,238.344v-1c0-1.104-0.896-2-2-2h-13v-1c0-1.104-0.896-2-2-2h-5c-1.104,0-2,0.896-2,2v3v1H117.274z
		"/>
	<path fill="#FFFFFF" d="M93.274,239.344v1.5v10.5c0,1.105,0.896,2,2,2h20c1.104,0,2-0.895,2-2v-12H93.274z"/>
</g>
<path fill="#415560" d="M-423.125-172.432h-22.967h-0.199h-0.601h-0.216v16h25v-16h-0.865H-423.125z M-424.125-171.432l-9.658,9.658
	c-0.439,0.44-1.209,0.44-1.648,0l-9.66-9.658H-424.125z M-446.107-171.033l6.493,6.491l-6.493,6.493V-171.033z M-445.311-157.432
	l6.404-6.402l2.768,2.768c0.408,0.409,0.953,0.635,1.531,0.635s1.123-0.226,1.531-0.635l2.768-2.768l6.402,6.402H-445.311z
	 M-423.107-158.047l-6.494-6.494l6.494-6.494V-158.047z"/>
<g>
	<polygon fill="#FFFFFF" points="-439.043,331.298 -446.538,323.804 -446.538,338.794 	"/>
	<path fill="#FFFFFF" d="M-433.211,334.065l10.655-10.654h-22.962l10.656,10.654C-434.42,334.507-433.652,334.507-433.211,334.065z"
		/>
	<path fill="#FFFFFF" d="M-429.736,332.005l-2.768,2.768c-0.409,0.41-0.953,0.635-1.532,0.635s-1.123-0.225-1.532-0.635
		l-2.768-2.766l-7.405,7.404h23.41L-429.736,332.005z"/>
	<polygon fill="#FFFFFF" points="-429.029,331.298 -421.538,338.79 -421.538,323.808 	"/>
</g>
<g>
	<path fill="#415560" d="M-334.35,8.304h-4.136l-2.404-2.41c-0.003-0.002-0.005-0.005-0.008-0.008l-0.005-0.004
		c-0.361-0.357-0.857-0.578-1.405-0.578h-5c-0.581,0-1.099,0.252-1.465,0.646l-0.002-0.006l-2.354,2.359h-4.221
		c-1.104,0-2,0.896-2,2v12c0,1.104,0.896,2,2,2h21c1.104,0,2-0.896,2-2v-12C-332.35,9.199-333.246,8.304-334.35,8.304z
		 M-333.35,22.304c0,0.551-0.449,1-1,1h-21c-0.551,0-1-0.449-1-1v-12c0-0.551,0.449-1,1-1h4.221h0.414l0.294-0.293l1.21-1.213
		l0.025,0.073l1.147-1.241c0.194-0.211,0.454-0.326,0.73-0.326h5c0.265,0,0.515,0.103,0.71,0.297l2.404,2.409l0.293,0.294h0.415
		h4.136c0.551,0,1,0.449,1,1V22.304z"/>
	<path fill="#415560" d="M-344.85,9.304c-3.59,0-6.5,2.91-6.5,6.499c0,3.591,2.91,6.501,6.5,6.501s6.5-2.91,6.5-6.501
		C-338.35,12.214-341.26,9.304-344.85,9.304z M-344.85,21.304c-3.033,0-5.5-2.468-5.5-5.501c0-3.032,2.467-5.499,5.5-5.499
		s5.5,2.467,5.5,5.499C-339.35,18.836-341.817,21.304-344.85,21.304z"/>
	<path fill="#415560" d="M-344.85,11.304c-2.486,0-4.5,2.014-4.5,4.499s2.014,4.501,4.5,4.501s4.5-2.016,4.5-4.501
		S-342.364,11.304-344.85,11.304z M-344.85,19.304c-1.93,0-3.5-1.57-3.5-3.501c0-1.929,1.57-3.499,3.5-3.499s3.5,1.57,3.5,3.499
		C-341.35,17.733-342.92,19.304-344.85,19.304z"/>
</g>
<g>
	<path fill="#FFFFFF" d="M-333.82,506.594h-4.136l-2.404-2.41c-0.003-0.002-0.005-0.006-0.008-0.008l-0.005-0.004
		c-0.361-0.357-0.857-0.578-1.405-0.578h-5c-0.581,0-1.099,0.252-1.465,0.646l-0.002-0.006l-2.354,2.359h-4.221
		c-1.104,0-2,0.895-2,2v12c0,1.104,0.896,2,2,2h21c1.104,0,2-0.896,2-2v-12C-331.82,507.488-332.716,506.594-333.82,506.594z
		 M-344.32,519.594c-3.038,0-5.5-2.463-5.5-5.502c0-3.036,2.462-5.498,5.5-5.498c3.037,0,5.5,2.462,5.5,5.498
		C-338.82,517.131-341.283,519.594-344.32,519.594z"/>
	<circle fill="#FFFFFF" cx="-344.32" cy="514.094" r="4.5"/>
</g>
<path fill="#415560" d="M-333.803-175.5c-0.293-0.293-0.677-0.439-1.061-0.439c-0.385,0-0.769,0.146-1.061,0.439l-4.414,4.414
	v-0.837h-16v19h19v-16h-0.92l4.455-4.456C-333.216-173.963-333.216-174.915-333.803-175.5z M-338.338-153.923h-17v-17h14.837
	l-7.837,7.836v2.164h2.081l7.919-7.92V-153.923z M-334.51-174.086l-12.161,12.163h-0.667v-0.75l12.121-12.12
	c0.127-0.127,0.275-0.146,0.354-0.146c0.077,0,0.227,0.02,0.354,0.146c0.128,0.128,0.147,0.277,0.147,0.354
	S-334.382-174.213-334.51-174.086z"/>
<g>
	<path fill="#FFFFFF" d="M-333.273,320.343c-0.293-0.293-0.677-0.439-1.061-0.439c-0.385,0-0.769,0.146-1.061,0.439l-3.608,3.607
		l-0.498,0.498l-0.472,0.471l-2.873,2.875l-4.963,4.961v2.164h2.081l2.447-2.447l5.472-5.473l0.081-0.08h-0.001l0.256-0.256
		l4.199-4.199C-332.687,321.878-332.687,320.929-333.273,320.343z"/>
	<polygon fill="#FFFFFF" points="-337.102,327.706 -342.573,333.179 -345.021,335.626 -345.313,335.919 -345.728,335.919 
		-347.809,335.919 -348.809,335.919 -348.809,334.919 -348.809,332.755 -348.809,332.341 -348.516,332.048 -343.553,327.087 
		-340.68,324.212 -340.387,323.919 -355.809,323.919 -355.809,342.919 -336.809,342.919 -336.809,327.413 -337.022,327.628 	"/>
</g>
<path fill="#415560" d="M-246.703-174.89c-0.018,0.006-1.818,0.623-4.666,0.623c-1.451,0-2.834-0.295-4.17-0.579
	c-1.351-0.288-2.748-0.586-4.228-0.586c-2.95,0-3.95,0.634-4.056,0.706l-0.215,0.148v0.164v11.242v9.739h1v-9.562
	c0.398-0.156,1.373-0.433,3.271-0.433c1.374,0,2.659,0.274,4.02,0.563c1.387,0.297,2.821,0.602,4.378,0.602
	c3.031,0,4.919-0.65,4.998-0.679l0.334-0.118v-12.064L-246.703-174.89z M-247.037-163.784c-0.646,0.177-2.195,0.523-4.332,0.523
	c-1.451,0-2.834-0.294-4.17-0.579c-1.351-0.288-2.748-0.586-4.228-0.586c-1.62,0-2.651,0.19-3.271,0.376v-9.951
	c0.4-0.154,1.379-0.431,3.271-0.431c1.374,0,2.659,0.274,4.02,0.563c1.387,0.296,2.821,0.602,4.378,0.602
	c2.014,0,3.522-0.287,4.332-0.488V-163.784z"/>
<path fill="#FFFFFF" d="M-245.266,320.954c-0.018,0.006-1.818,0.623-4.666,0.623c-1.451,0-2.834-0.295-4.17-0.58
	c-1.351-0.287-2.748-0.586-4.228-0.586c-2.95,0-3.95,0.635-4.056,0.707l-0.215,0.148v0.164v11.242v9.738h1v-9.561
	c0.398-0.156,1.373-0.434,3.271-0.434c1.374,0,2.659,0.275,4.02,0.564c1.387,0.297,2.821,0.602,4.378,0.602
	c3.031,0,4.919-0.65,4.998-0.68l0.334-0.117v-12.064L-245.266,320.954z"/>
<g>
	<path fill="#415560" d="M104.902-176.932c-6.904,0-12.5,5.596-12.5,12.5s5.596,12.5,12.5,12.5s12.5-5.596,12.5-12.5
		S111.807-176.932,104.902-176.932z M104.902-152.932c-6.341,0-11.5-5.159-11.5-11.5s5.159-11.5,11.5-11.5s11.5,5.159,11.5,11.5
		S111.243-152.932,104.902-152.932z"/>
	<polygon fill="#415560" points="105.402,-171.932 104.402,-171.932 104.402,-164.932 97.436,-164.932 97.436,-163.932 
		104.402,-163.932 104.402,-156.965 105.402,-156.965 105.402,-163.932 112.402,-163.932 112.402,-164.932 105.402,-164.932 	"/>
</g>
<g>
	<path fill="#415560" d="M104.902-86.816c-6.904,0-12.5,5.596-12.5,12.5s5.596,12.5,12.5,12.5s12.5-5.596,12.5-12.5
		S111.807-86.816,104.902-86.816z M104.902-62.816c-6.341,0-11.5-5.159-11.5-11.5s5.159-11.5,11.5-11.5s11.5,5.159,11.5,11.5
		S111.243-62.816,104.902-62.816z"/>
	<rect x="98.436" y="-74.816" fill="#415560" width="12.967" height="1"/>
</g>
<path fill="#FFFFFF" d="M105.274,318.911c-6.904,0-12.5,5.596-12.5,12.5s5.596,12.5,12.5,12.5s12.5-5.596,12.5-12.5
	S112.179,318.911,105.274,318.911z M112.774,331.911h-7v6.967h-1v-6.967h-6.967v-1h6.967v-7h1v7h7V331.911z"/>
<path fill="#FFFFFF" d="M105.274,409.786c-6.904,0-12.5,5.596-12.5,12.5s5.596,12.5,12.5,12.5s12.5-5.596,12.5-12.5
	S112.179,409.786,105.274,409.786z M111.774,422.786H98.808v-1h12.967V422.786z"/>
<g>
	<circle fill="#FFFFFF" cx="15.322" cy="8.804" r="1.5"/>
	<polygon fill="#FFFFFF" points="16.822,12.304 16.822,11.735 16.822,11.304 13.822,11.304 13.822,12.304 14.822,12.304 
		14.822,20.304 13.822,20.304 13.822,21.304 17.822,21.304 17.822,20.304 16.822,20.304 	"/>
	<path fill="#FFFFFF" d="M15.322,2.304c-6.903,0-12.5,5.596-12.5,12.5s5.597,12.5,12.5,12.5s12.5-5.596,12.5-12.5
		S22.226,2.304,15.322,2.304z M15.322,26.304c-6.342,0-11.5-5.159-11.5-11.5s5.158-11.5,11.5-11.5s11.5,5.159,11.5,11.5
		S21.664,26.304,15.322,26.304z"/>
</g>
<path fill="#FFFFFF" d="M15.164,500.594c-6.903,0-12.5,5.596-12.5,12.5s5.597,12.5,12.5,12.5s12.5-5.596,12.5-12.5
	S22.067,500.594,15.164,500.594z M15.164,505.594c0.828,0,1.5,0.672,1.5,1.5s-0.672,1.5-1.5,1.5s-1.5-0.672-1.5-1.5
	S14.336,505.594,15.164,505.594z M17.664,519.594h-4v-1h1v-8h-1v-1h3v0.432v0.568v8h1V519.594z"/>
<path fill="#415560" d="M103.392,7.267v3.108v0.99l0.99,0.01c6.872,0.066,10.744,3.122,11.753,9.314
	c-3.775-4.365-8.129-4.367-11.743-4.368l-1-0.001v1.001v3.063l-9.26-6.56L103.392,7.267 M104.392,5.333l-11.989,8.492l11.989,8.493
	v-4.997c4.799,0.002,9.248,0.244,13.011,6.953c0-4.262-0.704-13.78-13.011-13.899V5.333L104.392,5.333z"/>
<path fill="#FFFFFF" d="M104.765,508.666v-5.043l-11.99,8.492l11.99,8.494v-4.998c4.799,0.002,9.248,0.244,13.01,6.953
	C117.774,518.303,117.071,508.785,104.765,508.666z"/>
<g>
	<polygon fill="#415560" points="19.037,-75.334 18.33,-76.042 15.322,-73.035 12.314,-76.042 11.607,-75.334 14.615,-72.328 
		11.598,-69.31 12.305,-68.603 15.322,-71.621 18.34,-68.603 19.047,-69.31 16.029,-72.328 	"/>
	<path fill="#415560" d="M27.822-82.815h-25v1h0.735l0.265,2c0,0.798,0.471,1.481,1.146,1.802l1.763,10.287
		c0.185,1.046,0.854,1.908,1.909,1.908h13.363c1.054,0,1.693-0.847,1.909-1.908l1.763-10.287c0.676-0.32,1.146-1.004,1.146-1.802
		l0.265-2h0.735V-82.815z M22.93-67.912c-0.086,0.415-0.32,1.094-0.926,1.094H8.641c-0.681,0-0.879-0.828-0.924-1.077l-1.701-9.92
		h18.613L22.93-67.912z M25.831-79.947l-0.009,0.065v0.066c0,0.551-0.449,1-1,1h-19c-0.551,0-1-0.449-1-1v-0.066l-0.009-0.065
		l-0.248-1.868h21.514L25.831-79.947z"/>
</g>
<g>
	<path fill="#FFFFFF" d="M2.664,413.788v1H3.4l0.264,2c0,0.367,0.109,0.705,0.282,1h22.436c0.173-0.295,0.282-0.633,0.282-1l0.266-2
		h0.734v-1H2.664z"/>
	<path fill="#FFFFFF" d="M6.574,428.876c0.184,1.047,0.854,1.908,1.908,1.908h13.363c1.055,0,1.693-0.846,1.91-1.908l1.728-10.088
		H4.845L6.574,428.876z M11.449,421.269l0.707-0.707l3.008,3.006l3.008-3.006l0.707,0.707l-3.008,3.006l3.018,3.018l-0.707,0.707
		l-3.018-3.018l-3.018,3.018l-0.707-0.707l3.018-3.018L11.449,421.269z"/>
</g>
<path fill="#FFFFFF" d="M-153.224,231.341h-9c-0.369,0-0.706,0.111-1.001,0.287v19.722h-1v-19.722
	c-0.295-0.176-0.632-0.287-1.001-0.287h-9c-1.105,0-2,0.895-2,2v17.006c0,1.105,0.895,2,2,2h9c0.01,0,0.02-0.002,0.029-0.002
	c0.531,0.012,0.961,0.441,0.973,0.973v1.029h1v-0.555h0.01v-0.45c0-0.54,0.432-0.979,0.969-0.997c0.008,0,0.015,0.002,0.021,0.002h9
	c1.105,0,2-0.895,2-2v-17.006C-151.224,232.235-152.118,231.341-153.224,231.341z"/>
<g>
	<path fill="#415560" d="M-81.726,9.806h14v-4h-14V9.806z M-80.726,6.806h12v2h-12V6.806z"/>
	<path fill="#415560" d="M-67.726,2.804h-14c-1.104,0-2,0.896-2,2v20c0,1.104,0.896,2,2,2h14c1.104,0,2-0.896,2-2v-20
		C-65.726,3.699-66.621,2.804-67.726,2.804z M-66.726,24.804c0,0.551-0.448,1-1,1h-14c-0.552,0-1-0.449-1-1v-20c0-0.551,0.448-1,1-1
		h14c0.552,0,1,0.449,1,1V24.804z"/>
	<polygon fill="#415560" points="-80.726,13.804 -80.726,11.804 -80.726,10.804 -81.726,10.804 -81.726,14.804 -77.726,14.804 
		-77.726,13.804 -78.726,13.804 	"/>
	<polygon fill="#415560" points="-80.726,18.804 -80.726,16.804 -80.726,15.804 -81.726,15.804 -81.726,19.804 -77.726,19.804 
		-77.726,18.804 -78.726,18.804 	"/>
	<polygon fill="#415560" points="-80.726,23.804 -80.726,21.804 -80.726,20.804 -81.726,20.804 -81.726,24.804 -77.726,24.804 
		-77.726,23.804 -78.726,23.804 	"/>
	<polygon fill="#415560" points="-75.726,13.804 -75.726,11.804 -75.726,10.804 -76.726,10.804 -76.726,14.804 -72.726,14.804 
		-72.726,13.804 -73.726,13.804 	"/>
	<polygon fill="#415560" points="-70.726,13.804 -70.726,11.804 -70.726,10.804 -71.726,10.804 -71.726,14.804 -67.726,14.804 
		-67.726,13.804 -68.726,13.804 	"/>
	<polygon fill="#415560" points="-75.726,18.804 -75.726,16.804 -75.726,15.804 -76.726,15.804 -76.726,19.804 -72.726,19.804 
		-72.726,18.804 -73.726,18.804 	"/>
	<polygon fill="#415560" points="-75.726,23.804 -75.726,21.804 -75.726,20.804 -76.726,20.804 -76.726,24.804 -72.726,24.804 
		-72.726,23.804 -73.726,23.804 	"/>
	<polygon fill="#415560" points="-70.726,23.804 -70.726,21.804 -70.726,15.804 -71.726,15.804 -71.726,24.804 -67.726,24.804 
		-67.726,23.804 -68.726,23.804 	"/>
</g>
</svg>
