<?xml version="1.0" encoding="utf-8"?>
<!-- Generator: Adobe Illustrator 16.0.0, SVG Export Plug-In . SVG Version: 6.00 Build 0)  -->
<!DOCTYPE svg PUBLIC "-//W3C//DTD SVG 1.1//EN" "http://www.w3.org/Graphics/SVG/1.1/DTD/svg11.dtd">
<svg version="1.1" id="Layer_1" xmlns="http://www.w3.org/2000/svg" xmlns:xlink="http://www.w3.org/1999/xlink" x="0px" y="0px"
	 width="29px" height="26.833px" viewBox="0 0 29 26.833" enable-background="new 0 0 29 26.833" xml:space="preserve">
<g display="none">
	<rect x="-603.5" y="-527.667" display="inline" fill="#181A27" width="960" height="308.657"/>
	<rect x="-603.5" y="-219.009" display="inline" fill="#A2E0F9" width="960" height="496.343"/>
	<rect x="-603.5" y="277.413" display="inline" fill="#5C7CCC" width="960" height="594.921"/>
	<rect x="-355.878" y="-444.029" display="inline" fill="none" width="472.973" height="180.918"/>
	<text transform="matrix(1 0 0 1 -170.6904 -373.0298)" display="inline"><tspan x="0" y="0" fill="#FFFFFF" font-family="'HelveticaNeueLTStd-Th'" font-size="100">32</tspan><tspan x="-83.22" y="56" fill="#FFFFFF" font-family="'HelveticaNeueLTStd-Lt'" font-size="48">Tab-Bar Icons</tspan><tspan x="-1.38" y="95" fill="#437CFF" font-family="'HelveticaNeueLTStd-Lt'" font-size="24">IOS 7 Style </tspan></text>
	<rect x="-355.878" y="-165.545" display="inline" fill="none" width="472.973" height="26.471"/>
	
		<text transform="matrix(1 0 0 1 -166.4312 -148.5049)" display="inline" fill="#415560" font-family="'HelveticaNeueLTStd-Lt'" font-size="24">line icons</text>
	<g display="inline">
		<path fill="#415560" d="M-193.892-169.289c-6.904,0-12.5,5.596-12.5,12.5s5.596,12.5,12.5,12.5s12.5-5.596,12.5-12.5
			S-186.987-169.289-193.892-169.289z M-193.892-145.289c-6.341,0-11.5-5.159-11.5-11.5s5.159-11.5,11.5-11.5s11.5,5.159,11.5,11.5
			S-187.551-145.289-193.892-145.289z"/>
		<polygon fill="#415560" points="-194.605,-153.805 -193.898,-153.098 -193.191,-153.805 -192.015,-154.981 -188.242,-158.755 
			-188.949,-159.462 -193.898,-154.512 -198.825,-159.438 -199.532,-158.731 -196.708,-155.908 		"/>
	</g>
	<rect x="-355.878" y="329.715" display="inline" fill="none" width="472.973" height="26.471"/>
	
		<text transform="matrix(1 0 0 1 -163.8989 346.7554)" display="inline" fill="#FFFFFF" font-family="'HelveticaNeueLTStd-Lt'" font-size="24">full icons</text>
	<path display="inline" fill="#FFFFFF" d="M-193.892,325.971c-6.904,0-12.5,5.596-12.5,12.5s5.596,12.5,12.5,12.5
		s12.5-5.596,12.5-12.5S-186.987,325.971-193.892,325.971z M-192.015,340.279l-1.176,1.177l-0.707,0.707l-0.707-0.707l-2.103-2.104
		l-2.824-2.823l0.707-0.707l4.926,4.927l4.95-4.95l0.707,0.707L-192.015,340.279z"/>
	<rect x="-355.878" y="788.956" display="inline" fill="none" width="472.973" height="35.996"/>
	
		<text transform="matrix(1 0 0 1 -169.5864 805.9956)" display="inline" fill="#FFFFFF" font-family="'HelveticaNeueLTStd-Lt'" font-size="24">30 x 30 px</text>
</g>
<path fill="#415560" d="M-333.274-84.173l-5-5h-11v4h-6v22h16v-4h6V-84.173z M-338.274-87.759l3.586,3.586h-3.586V-87.759z
	 M-354.274-64.173v-20h9v5h5v15H-354.274z M-344.274-83.759l3.586,3.586h-3.586V-83.759z M-339.274-68.173v-12l-5-5h-4v-3h9v5h5v15
	H-339.274z"/>
<g>
	<polygon fill="#415560" points="-259.599,-75.512 -254.517,-70.43 -249.435,-75.512 -250.142,-76.219 -254.017,-72.344 
		-254.017,-88.173 -255.017,-88.173 -255.017,-72.344 -258.892,-76.219 	"/>
	<polygon fill="#415560" points="-252.017,-83.173 -252.017,-82.173 -246.017,-82.173 -246.017,-65.173 -263.017,-65.173 
		-263.017,-82.173 -257.017,-82.173 -257.017,-83.173 -264.017,-83.173 -264.017,-64.173 -245.017,-64.173 -245.017,-83.173 	"/>
</g>
<g>
	<polygon fill="#415560" points="-159.622,-76.834 -164.704,-81.916 -169.786,-76.834 -169.079,-76.127 -165.204,-80.002 
		-165.204,-64.173 -164.204,-64.173 -164.204,-80.002 -160.329,-76.127 	"/>
	<polygon fill="#415560" points="-167.204,-69.173 -167.204,-70.173 -173.204,-70.173 -173.204,-87.173 -156.204,-87.173 
		-156.204,-70.173 -162.204,-70.173 -162.204,-69.173 -155.204,-69.173 -155.204,-88.173 -174.204,-88.173 -174.204,-69.173 	"/>
</g>
<g>
	<polygon fill="#FFFFFF" points="-343.705,417.177 -338.705,417.177 -343.705,412.177 	"/>
	<polygon fill="#FFFFFF" points="-344.705,417.177 -344.705,412.177 -347.705,412.177 -348.705,412.177 -350.276,412.177 
		-354.705,412.177 -354.705,434.177 -338.705,434.177 -338.705,432.94 -338.705,430.177 -338.705,429.177 -338.705,418.177 
		-344.705,418.177 	"/>
	<polygon fill="#FFFFFF" points="-337.705,408.177 -337.705,413.177 -332.705,413.177 	"/>
	<polygon fill="#FFFFFF" points="-338.705,413.177 -338.705,408.177 -341.705,408.177 -342.705,408.177 -344.276,408.177 
		-348.705,408.177 -348.705,411.177 -347.705,411.177 -343.705,411.177 -343.291,411.177 -342.998,411.47 -337.998,416.47 
		-337.705,416.763 -337.705,417.177 -337.705,429.177 -337.705,430.177 -332.705,430.177 -332.705,428.94 -332.705,426.177 
		-332.705,425.177 -332.705,414.177 -338.705,414.177 	"/>
</g>
<polygon fill="#FFFFFF" points="-253.487,411.677 -253.487,422.506 -249.612,418.631 -248.905,419.338 -253.987,424.42 
	-259.069,419.338 -258.362,418.631 -254.487,422.506 -254.487,411.677 -263.487,411.677 -263.487,430.677 -244.487,430.677 
	-244.487,411.677 "/>
<polygon fill="#FFFFFF" points="-162.767,430.677 -162.767,419.848 -158.892,423.723 -158.185,423.016 -163.267,417.934 
	-168.349,423.016 -167.642,423.723 -163.767,419.848 -163.767,430.677 -172.767,430.677 -172.767,411.677 -153.767,411.677 
	-153.767,430.677 "/>
<path fill="#415560" d="M119.155,10.845h-10.33l-3.17-9.943l-3.171,9.943H92.155l8.37,6.116l-3.214,9.94l8.344-6.167l8.344,6.167
	l-3.214-9.94L119.155,10.845z M112.09,24.248l-5.84-4.318l-0.595-0.438l-0.595,0.438l-5.84,4.318l2.256-6.979l0.223-0.688
	l-0.584-0.427l-5.896-4.309h7.266h0.73l0.223-0.696l2.218-6.955l2.217,6.955l0.223,0.696h0.73h7.267l-5.896,4.309l-0.584,0.427
	l0.223,0.688L112.09,24.248z"/>
<g>
	<polygon fill="#FFFFFF" points="105.497,496.745 108.667,506.688 118.997,506.688 110.627,512.804 113.841,522.745 
		105.497,516.578 97.153,522.745 100.367,512.804 91.997,506.688 102.326,506.688 	"/>
</g>
<path fill="#415560" d="M-63.891-87.677h-9c-0.602,0-1.135,0.271-1.501,0.692c-0.366-0.421-0.899-0.692-1.501-0.692h-9
	c-1.105,0-2,0.896-2,2v17.008c0,1.104,0.895,2,2,2h9c0.01,0,0.02-0.004,0.029-0.004c0.531,0.014,0.961,0.442,0.973,0.974v1.03h1
	v-0.555h0.01v-0.451c0-0.541,0.432-0.98,0.969-0.997c0.008,0,0.015,0.003,0.021,0.003h9c1.105,0,2-0.896,2-2v-17.008
	C-61.891-86.78-62.785-87.677-63.891-87.677z M-85.893-68.669v-17.008c0-0.551,0.448-1,1-1h9c0.551,0,1,0.449,1,1v17.008
	c0,0.551-0.449,1-1,1h-9C-85.444-67.669-85.893-68.118-85.893-68.669z M-62.891-68.669c0,0.551-0.448,1-1,1h-9c-0.551,0-1-0.449-1-1
	v-0.409v-16.599c0-0.551,0.449-1,1-1h9c0.552,0,1,0.449,1,1V-68.669z"/>
<g>
	<path fill="#415560" d="M-74.392,4.902c-5.483,0-9.758,3.433-15,8.997c4.517,4.758,8.307,9.003,15,9.003s11.613-5.374,15-8.903
		C-62.858,9.866-67.778,4.902-74.392,4.902z M-74.392,21.902c-5.941,0-9.529-3.686-13.621-8.003
		c4.869-5.076,8.74-7.997,13.621-7.997c5.777,0,10.293,4.167,13.653,8.058C-64.042,17.405-68.517,21.902-74.392,21.902z"/>
	<path fill="#415560" d="M-74.392,7.903c-3.309,0-6,2.691-6,5.999s2.691,5.999,6,5.999s6-2.691,6-5.999S-71.083,7.903-74.392,7.903z
		 M-74.392,18.901c-2.757,0-5-2.242-5-4.999s2.243-4.999,5-4.999s5,2.242,5,4.999S-71.635,18.901-74.392,18.901z"/>
	<path fill="#415560" d="M-74.392,9.881c-2.217,0-4.02,1.804-4.02,4.021c0,2.216,1.803,4.02,4.02,4.02s4.02-1.804,4.02-4.02
		C-70.372,11.685-72.175,9.881-74.392,9.881z M-74.392,16.921c-1.666,0-3.02-1.355-3.02-3.02c0-1.665,1.354-3.021,3.02-3.021
		s3.02,1.355,3.02,3.021C-71.372,15.566-72.726,16.921-74.392,16.921z"/>
</g>
<g>
	<path fill="#FFFFFF" d="M-73.392,500.745c-5.483,0-9.758,3.433-15,8.997c4.517,4.758,8.307,9.003,15,9.003s11.613-5.374,15-8.903
		C-61.858,505.708-66.778,500.745-73.392,500.745z M-73.392,515.744c-3.309,0-6-2.691-6-5.999s2.691-5.999,6-5.999s6,2.691,6,5.999
		S-70.083,515.744-73.392,515.744z"/>
	<path fill="#FFFFFF" d="M-73.392,505.724c-2.217,0-4.02,1.804-4.02,4.021c0,2.216,1.803,4.02,4.02,4.02s4.02-1.804,4.02-4.02
		C-69.372,507.528-71.175,505.724-73.392,505.724z"/>
</g>
<path fill="#415560" d="M-434.018,1.902c-6.628,0-12,5.372-12,12s5.372,12,12,12s12-5.372,12-12S-427.39,1.902-434.018,1.902z
	 M-434.018,2.902c6.065,0,11,4.935,11,11c0,2.669-0.957,5.118-2.545,7.026c-1.087-0.456-3.676-1.355-5.286-1.832
	c-0.137-0.043-0.158-0.049-0.158-0.618c0-0.47,0.193-0.942,0.382-1.343c0.204-0.436,0.446-1.167,0.533-1.823
	c0.243-0.282,0.575-0.839,0.787-1.899c0.187-0.936,0.1-1.275-0.024-1.596c-0.013-0.033-0.026-0.066-0.035-0.1
	c-0.047-0.219,0.017-1.358,0.177-2.242c0.11-0.606-0.028-1.896-0.862-2.963c-0.527-0.674-1.537-1.502-3.38-1.617l-1.011,0.001
	c-1.812,0.114-2.82,0.942-3.348,1.616c-0.836,1.066-0.975,2.356-0.863,2.963c0.16,0.884,0.225,2.023,0.178,2.238
	c-0.01,0.037-0.023,0.07-0.037,0.104c-0.123,0.32-0.211,0.66-0.023,1.596c0.213,1.061,0.543,1.617,0.787,1.899
	c0.086,0.656,0.328,1.388,0.533,1.823c0.15,0.318,0.22,0.751,0.22,1.363c0,0.568-0.021,0.576-0.149,0.616
	c-1.658,0.489-4.293,1.442-5.275,1.872c-1.618-1.916-2.599-4.387-2.599-7.085C-445.018,7.836-440.083,2.902-434.018,2.902z
	 M-441.693,21.766c1.126-0.459,3.367-1.259,4.842-1.695c0.857-0.27,0.857-0.992,0.857-1.572c0-0.48-0.032-1.189-0.314-1.789
	c-0.193-0.411-0.414-1.115-0.462-1.666c-0.012-0.129-0.072-0.248-0.17-0.334c-0.141-0.123-0.43-0.578-0.613-1.494
	c-0.145-0.725-0.084-0.883-0.023-1.037c0.025-0.064,0.049-0.129,0.068-0.202c0.121-0.438-0.014-1.881-0.159-2.681
	c-0.063-0.348,0.017-1.336,0.667-2.168c0.584-0.745,1.467-1.16,2.592-1.232l0.948-0.001c1.157,0.073,2.04,0.488,2.623,1.233
	c0.65,0.832,0.729,1.82,0.667,2.168c-0.146,0.8-0.279,2.242-0.16,2.68c0.021,0.074,0.045,0.139,0.07,0.203
	c0.059,0.154,0.121,0.312-0.024,1.037c-0.184,0.916-0.472,1.371-0.614,1.494c-0.097,0.086-0.157,0.205-0.168,0.334
	c-0.049,0.551-0.27,1.255-0.463,1.666c-0.222,0.471-0.477,1.098-0.477,1.769c0,0.58,0,1.302,0.867,1.575
	c1.411,0.417,3.665,1.191,4.856,1.66c-1.989,1.969-4.722,3.188-7.734,3.188C-437.002,24.902-439.709,23.703-441.693,21.766z"/>
<path fill="#FFFFFF" d="M-434.517,497.745c-6.628,0-12,5.372-12,12s5.372,12,12,12s12-5.372,12-12S-427.889,497.745-434.517,497.745
	z M-426.062,516.771c-1.087-0.456-3.676-1.355-5.286-1.832c-0.137-0.043-0.158-0.049-0.158-0.618c0-0.47,0.193-0.942,0.382-1.343
	c0.204-0.436,0.446-1.167,0.533-1.823c0.243-0.282,0.575-0.839,0.787-1.899c0.187-0.936,0.1-1.275-0.024-1.596
	c-0.013-0.033-0.026-0.066-0.035-0.1c-0.047-0.219,0.017-1.358,0.177-2.242c0.11-0.606-0.028-1.896-0.862-2.963
	c-0.527-0.674-1.537-1.502-3.38-1.617l-1.011,0.001c-1.812,0.114-2.82,0.942-3.348,1.616c-0.836,1.066-0.975,2.356-0.863,2.963
	c0.16,0.884,0.225,2.023,0.178,2.238c-0.01,0.037-0.023,0.07-0.037,0.104c-0.123,0.32-0.211,0.66-0.023,1.596
	c0.213,1.061,0.543,1.617,0.787,1.899c0.086,0.656,0.328,1.388,0.533,1.823c0.15,0.318,0.22,0.751,0.22,1.363
	c0,0.568-0.021,0.576-0.149,0.616c-1.658,0.489-4.293,1.442-5.275,1.872c-1.618-1.916-2.599-4.387-2.599-7.085
	c0-6.065,4.935-11,11-11s11,4.935,11,11C-423.517,512.414-424.474,514.863-426.062,516.771z"/>
<g>
	<path fill="#FFFFFF" d="M21.988,679.427h-14c-1.104,0-2,0.896-2,2v20c0,1.104,0.896,2,2,2h14c1.104,0,2-0.896,2-2v-20
		C23.988,680.323,23.093,679.427,21.988,679.427z M11.988,699.427h-3v-3h3V699.427z M11.988,695.426h-3v-3h3V695.426z
		 M11.988,691.427h-3v-3h3V691.427z M16.488,699.427h-3v-3h3V699.427z M16.488,695.426h-3v-3h3V695.426z M16.488,691.427h-3v-3h3
		V691.427z M20.988,699.427h-3v-7.001h3V699.427z M20.988,691.427h-3v-3h3V691.427z M20.988,686.427h-12v-3h12V686.427z"/>
</g>
<path fill="#415560" d="M-434.018,91.517c-0.003,0-0.007,0-0.011,0c-0.002,0-0.003,0-0.005,0c-0.005,0-0.01,0.001-0.015,0.001
	c-6.891,0.017-12.47,5.606-12.47,12.499s5.579,12.482,12.47,12.499c0.005,0,0.01,0.001,0.015,0.001c0.002,0,0.003,0,0.005,0
	c0.004,0,0.008,0,0.011,0c6.902,0,12.5-5.598,12.5-12.5C-421.518,97.114-427.115,91.517-434.018,91.517z M-433.518,98.998
	c1.325-0.035,2.614-0.211,3.856-0.514c0.375,1.474,0.606,3.172,0.643,5.033h-4.499V98.998z M-433.518,97.998v-5.401
	c1.349,0.373,2.714,2.171,3.584,4.926C-431.089,97.8-432.286,97.962-433.518,97.998z M-434.518,92.584v5.413
	c-1.241-0.035-2.449-0.2-3.612-0.482C-437.253,94.742-435.874,92.938-434.518,92.584z M-434.518,98.998v4.52h-4.53
	c0.036-1.863,0.27-3.564,0.644-5.039C-437.153,98.784-435.854,98.961-434.518,98.998z M-440.055,103.517h-5.45
	c0.11-2.57,1.068-4.926,2.602-6.791c1.113,0.613,2.294,1.115,3.531,1.49C-439.776,99.812-440.019,101.609-440.055,103.517z
	 M-440.055,104.517c0.036,1.908,0.278,3.705,0.683,5.3c-1.236,0.376-2.418,0.878-3.531,1.491c-1.533-1.865-2.491-4.221-2.602-6.791
	H-440.055z M-439.048,104.517h4.53v4.515c-1.336,0.036-2.636,0.214-3.888,0.521C-438.779,108.079-439.012,106.379-439.048,104.517z
	 M-434.518,110.031v5.419c-1.358-0.354-2.737-2.16-3.614-4.936C-436.968,110.231-435.759,110.066-434.518,110.031z
	 M-433.518,115.438v-5.407c1.231,0.035,2.43,0.198,3.585,0.477C-430.803,113.265-432.169,115.065-433.518,115.438z
	 M-433.518,109.032v-4.515h4.499c-0.036,1.859-0.268,3.557-0.641,5.028C-430.902,109.244-432.192,109.068-433.518,109.032z
	 M-428.012,104.517h5.481c-0.11,2.57-1.067,4.926-2.601,6.791c-1.122-0.618-2.313-1.124-3.562-1.5
	C-428.29,108.214-428.048,106.421-428.012,104.517z M-428.012,103.517c-0.036-1.906-0.278-3.701-0.682-5.295
	c1.247-0.377,2.438-0.882,3.56-1.499c1.535,1.866,2.492,4.222,2.604,6.794H-428.012z M-425.823,95.959
	c-0.994,0.53-2.045,0.967-3.141,1.299c-0.585-1.881-1.406-3.415-2.376-4.423C-429.211,93.345-427.31,94.447-425.823,95.959z
	 M-436.735,92.844c-0.965,1.007-1.781,2.534-2.364,4.405c-1.086-0.331-2.127-0.765-3.112-1.29
	C-440.735,94.457-438.849,93.359-436.735,92.844z M-442.216,112.072c0.986-0.527,2.028-0.961,3.115-1.292
	c0.582,1.874,1.399,3.403,2.365,4.41C-438.85,114.675-440.737,113.576-442.216,112.072z M-431.341,115.199
	c0.973-1.008,1.793-2.544,2.378-4.428c1.097,0.333,2.147,0.77,3.144,1.301C-427.308,113.585-429.21,114.689-431.341,115.199z"/>
<g>
	<path fill="#FFFFFF" d="M-434.517,588.12c-0.003,0-0.007,0-0.011,0c-0.002,0-0.003,0-0.005,0c-0.005,0-0.01,0.001-0.015,0.001
		c-6.891,0.017-12.47,5.606-12.47,12.499s5.579,12.482,12.47,12.499c0.005,0,0.01,0.001,0.015,0.001c0.002,0,0.003,0,0.005,0
		c0.004,0,0.008,0,0.011,0c6.902,0,12.5-5.598,12.5-12.5C-422.017,593.716-427.614,588.12-434.517,588.12z M-434.487,612.12
		l-0.009-0.001h-0.049c-6.325-0.015-11.472-5.174-11.472-11.499s5.146-11.484,11.47-11.499l0.058-0.001h0.004
		c6.327,0.018,11.469,5.17,11.469,11.5C-423.017,606.946-428.151,612.096-434.487,612.12z"/>
	<path fill="#FFFFFF" d="M-427.026,593.254c-1.358-1.383-3.097-2.39-5.043-2.855c0.887,0.921,1.638,2.323,2.172,4.043
		C-428.896,594.138-427.936,593.739-427.026,593.254z"/>
	<path fill="#FFFFFF" d="M-434.017,590.198v4.916c1.11-0.034,2.19-0.18,3.233-0.432
		C-431.57,592.194-432.798,590.565-434.017,590.198z"/>
	<path fill="#FFFFFF" d="M-430.534,595.562c-1.122,0.272-2.287,0.432-3.482,0.466v4.092h4.067
		C-429.985,598.436-430.194,596.897-430.534,595.562z"/>
	<path fill="#FFFFFF" d="M-438.275,594.676c1.05,0.254,2.14,0.403,3.259,0.438v-4.928
		C-436.243,590.536-437.482,592.17-438.275,594.676z"/>
	<path fill="#FFFFFF" d="M-429.949,601.12h-4.067v4.088c1.195,0.035,2.361,0.193,3.483,0.465
		C-430.194,604.339-429.985,602.801-429.949,601.12z"/>
	<path fill="#FFFFFF" d="M-429.029,600.12h5.009c-0.11-2.335-0.981-4.472-2.376-6.167c-1.024,0.563-2.113,1.025-3.254,1.37
		C-429.284,596.768-429.064,598.393-429.029,600.12z"/>
	<path fill="#FFFFFF" d="M-438.527,605.679c1.131-0.276,2.306-0.437,3.511-0.472v-4.088h-4.096
		C-439.077,602.805-438.866,604.344-438.527,605.679z"/>
	<path fill="#FFFFFF" d="M-439.112,600.12h4.096v-4.092c-1.205-0.035-2.38-0.195-3.51-0.471
		C-438.865,596.893-439.077,598.434-439.112,600.12z"/>
	<path fill="#FFFFFF" d="M-437.001,590.407c-1.932,0.471-3.656,1.474-5.006,2.848c0.9,0.48,1.853,0.877,2.845,1.18
		C-438.629,592.723-437.883,591.327-437.001,590.407z"/>
	<path fill="#FFFFFF" d="M-432.07,610.84c1.948-0.466,3.687-1.475,5.047-2.858c-0.91-0.485-1.87-0.885-2.873-1.188
		C-430.431,608.515-431.181,609.918-432.07,610.84z"/>
	<path fill="#FFFFFF" d="M-429.649,605.913c1.142,0.344,2.23,0.807,3.256,1.371c1.393-1.694,2.264-3.831,2.373-6.164h-5.009
		C-429.064,602.844-429.284,604.467-429.649,605.913z"/>
	<path fill="#FFFFFF" d="M-434.017,606.12v4.922c1.219-0.367,2.447-1.998,3.233-4.489
		C-431.825,606.301-432.906,606.155-434.017,606.12z"/>
	<path fill="#FFFFFF" d="M-439.411,595.317c-1.131-0.342-2.21-0.801-3.228-1.361c-1.393,1.694-2.265,3.831-2.374,6.164h4.979
		C-439.997,598.391-439.777,596.764-439.411,595.317z"/>
	<path fill="#FFFFFF" d="M-435.017,611.053v-4.934c-1.119,0.035-2.21,0.184-3.261,0.438
		C-437.484,609.066-436.244,610.702-435.017,611.053z"/>
	<path fill="#FFFFFF" d="M-440.033,601.12h-4.979c0.109,2.333,0.981,4.47,2.374,6.164c1.018-0.561,2.098-1.02,3.228-1.363
		C-439.777,604.475-439.997,602.848-440.033,601.12z"/>
	<path fill="#FFFFFF" d="M-442.01,607.982c1.351,1.375,3.076,2.38,5.009,2.851c-0.883-0.921-1.63-2.318-2.162-4.031
		C-440.156,607.104-441.108,607.5-442.01,607.982z"/>
</g>
<g>
	<path fill="#415560" d="M-344.268,94.518c-6.076,0-11,4.925-11,11c0,2.758,1.018,5.276,2.693,7.207l-2.572,3.154l0.773,0.632
		l2.494-3.057c1.977,1.896,4.656,3.062,7.611,3.062c2.963,0,5.648-1.173,7.627-3.077l2.492,3.075l0.777-0.63l-2.575-3.178
		c1.668-1.929,2.679-4.44,2.679-7.189C-333.268,99.442-338.193,94.518-344.268,94.518z M-344.268,115.517
		c-5.514,0-10-4.485-10-9.999s4.486-10,10-10c5.515,0,10,4.486,10,10S-338.753,115.517-344.268,115.517z"/>
	<path fill="#415560" d="M-349.297,91.518h-2.971c-2.762,0-5,2.238-5,5v3.009h1.422l6.549-6.586V91.518z M-350.297,92.527
		l-5.965,5.999h-0.006v-2.009c0-2.206,1.795-4,4-4h1.971V92.527z"/>
	<path fill="#415560" d="M-336.281,91.518h-2.973v1.423l6.55,6.586h1.423v-3.009C-331.281,93.756-333.521,91.518-336.281,91.518z
		 M-332.281,98.526h-0.007l-5.966-5.999v-0.01h1.973c2.205,0,4,1.794,4,4V98.526z"/>
	<polygon fill="#415560" points="-344.268,105.518 -349.78,105.518 -349.78,106.518 -343.268,106.518 -343.268,97.518 
		-344.268,97.518 	"/>
</g>
<g>
	<path fill="#FFFFFF" d="M-348.728,588.121h-2.971c-2.762,0-5,2.238-5,5v3.008h1.422l6.549-6.586V588.121z"/>
	<path fill="#FFFFFF" d="M-335.712,588.121h-2.973v1.422l6.55,6.586h1.423v-3.008C-330.712,590.359-332.951,588.121-335.712,588.121
		z"/>
	<path fill="#FFFFFF" d="M-343.698,591.121c-6.076,0-11,4.924-11,11c0,2.758,1.018,5.275,2.693,7.207l-2.572,3.154l0.773,0.631
		l2.494-3.057c1.977,1.896,4.656,3.062,7.611,3.062c2.963,0,5.648-1.172,7.627-3.076l2.492,3.074l0.777-0.629l-2.575-3.178
		c1.668-1.93,2.679-4.441,2.679-7.189C-332.698,596.044-337.624,591.121-343.698,591.121z M-342.698,603.121h-6.513v-1h5.513v-8h1
		V603.121z"/>
</g>
<g>
	<path fill="#415560" d="M-246.048,97.255l0.854-0.854l0.857,0.857l1.061-1.061l-2.422-2.422l-1.061,1.061l0.857,0.857l-0.854,0.854
		c-1.874-1.718-4.313-2.819-7.012-2.993v-2.038h-1.5v2.038c-6,0.388-10.75,5.363-10.75,11.462c0,6.352,5.148,11.5,11.5,11.5
		s11.5-5.148,11.5-11.5C-243.017,102.022-244.172,99.302-246.048,97.255z M-254.517,115.517c-5.789,0-10.5-4.71-10.5-10.5
		s4.711-10.5,10.5-10.5s10.5,4.71,10.5,10.5S-248.728,115.517-254.517,115.517z"/>
	<path fill="#415560" d="M-254.017,103.609v-6.592h-1v6.592c-0.581,0.206-1,0.756-1,1.408s0.419,1.202,1,1.408v2.092h1v-2.092
		c0.581-0.206,1-0.756,1-1.408S-253.436,103.815-254.017,103.609z"/>
</g>
<path fill="#FFFFFF" d="M-245.519,593.858l0.854-0.854l0.857,0.857l1.061-1.061l-2.422-2.422l-1.061,1.061l0.857,0.857l-0.854,0.854
	c-1.874-1.718-4.313-2.819-7.012-2.993v-2.038h-1.5v2.038c-6,0.388-10.75,5.363-10.75,11.462c0,6.352,5.148,11.5,11.5,11.5
	s11.5-5.148,11.5-11.5C-242.487,598.625-243.643,595.905-245.519,593.858z M-253.487,603.028v2.092h-1v-2.092
	c-0.581-0.206-1-0.756-1-1.408s0.419-1.202,1-1.408v-6.592h1v6.592c0.581,0.206,1,0.756,1,1.408S-252.906,602.822-253.487,603.028z"
	/>
<g>
	<path fill="#415560" d="M-165.937,104.884c0.02,0.024,0.047,0.045,0.068,0.068c0.275,0.342,0.691,0.564,1.164,0.564
		c0.828,0,1.5-0.671,1.5-1.5c0-0.44-0.193-0.832-0.494-1.106c-0.039-0.044-0.075-0.089-0.133-0.133l-6.062-4.612
		c-0.177-0.136-0.431-0.143-0.615,0c-0.221,0.17-0.262,0.486-0.092,0.707L-165.937,104.884z"/>
	<path fill="#415560" d="M-164.704,91.518c-0.164,0-0.324,0.019-0.486,0.024v0.519h-0.014v5.455h1v-4.973
		c6.109,0.265,11,5.302,11,11.474c0,6.341-5.158,11.499-11.5,11.499s-11.5-5.158-11.5-11.499c0-3.171,1.29-6.046,3.373-8.128
		l-0.711-0.711c-2.263,2.262-3.662,5.387-3.662,8.839c0,6.903,5.596,12.499,12.5,12.499s12.5-5.596,12.5-12.499
		S-157.8,91.518-164.704,91.518z"/>
</g>
<path fill="#FFFFFF" d="M-163.267,588.12c-6.903,0-12.5,5.597-12.5,12.5s5.597,12.5,12.5,12.5s12.5-5.597,12.5-12.5
	S-156.363,588.12-163.267,588.12z M-169.07,594.768c0.185-0.143,0.438-0.136,0.615,0l6.062,4.612
	c0.058,0.044,0.094,0.089,0.133,0.133c0.301,0.274,0.494,0.666,0.494,1.106c0,0.829-0.672,1.5-1.5,1.5
	c-0.473,0-0.889-0.223-1.164-0.564c-0.021-0.023-0.049-0.044-0.068-0.068l-4.663-6.012
	C-169.332,595.254-169.291,594.938-169.07,594.768z M-163.267,612.105c-6.351,0-11.5-5.149-11.5-11.5
	c0-3.176,1.287-6.051,3.368-8.133l0.711,0.711c-1.901,1.902-3.079,4.527-3.079,7.422c0,5.789,4.71,10.5,10.5,10.5
	s10.5-4.711,10.5-10.5c0-5.621-4.443-10.211-10-10.475v3.969h-1v-3.969v-0.531v-0.482c0.166-0.007,0.332-0.012,0.5-0.012
	c6.351,0,11.5,5.148,11.5,11.5C-151.767,606.956-156.916,612.105-163.267,612.105z"/>
<g>
	<path fill="#415560" d="M-74.392,92.017c-6.627,0-12,5.373-12,12s5.373,12,12,12s12-5.373,12-12S-67.765,92.017-74.392,92.017z
		 M-74.392,115.017c-6.065,0-11-4.935-11-11s4.935-11,11-11s11,4.935,11,11S-68.326,115.017-74.392,115.017z"/>
	<polygon fill="#415560" points="-74.392,105.017 -80.392,105.017 -80.392,106.017 -73.392,106.017 -73.392,96.058 -74.392,96.058 	
		"/>
</g>
<path fill="#FFFFFF" d="M-73.392,588.62c-6.627,0-12,5.373-12,12s5.373,12,12,12s12-5.373,12-12S-66.765,588.62-73.392,588.62z
	 M-72.392,602.62h-7v-1h6v-8.959h1V602.62z"/>
<path fill="#FFFFFF" d="M27.416,24.473l-6.812-6.812c1.369-1.646,2.193-3.761,2.193-6.069c0-5.247-4.253-9.5-9.5-9.5
	c-5.246,0-9.5,4.253-9.5,9.5c0,5.246,4.254,9.5,9.5,9.5c2.309,0,4.423-0.824,6.069-2.193l6.812,6.812L27.416,24.473z M4.798,11.592
	c0-4.688,3.812-8.5,8.5-8.5c4.687,0,8.5,3.812,8.5,8.5c0,4.687-3.813,8.5-8.5,8.5C8.61,20.092,4.798,16.279,4.798,11.592z"/>
<g>
	<path fill="#FFFFFF" d="M19.986,513.504c1.369-1.646,2.193-3.761,2.193-6.069c0-5.247-4.253-9.5-9.5-9.5
		c-5.246,0-9.5,4.253-9.5,9.5c0,5.246,4.254,9.5,9.5,9.5c2.309,0,4.423-0.824,6.069-2.193l6.812,6.812l1.237-1.237L19.986,513.504z
		 M12.68,515.935c-4.688,0-8.5-3.813-8.5-8.5c0-4.688,3.812-8.5,8.5-8.5c4.687,0,8.5,3.812,8.5,8.5
		C21.18,512.122,17.366,515.935,12.68,515.935z"/>
	<circle fill="#FFFFFF" cx="12.68" cy="507.498" r="7.5"/>
</g>
<g>
	<path fill="#415560" d="M25.107,94.517h-5v-1c0-1.104-0.896-2-2-2h-5c-1.104,0-2,0.896-2,2v1h-5v1h1.029l1.002,19
		c0,1.104,0.896,2,2,2h11c1.104,0,2-0.896,2-2l0.982-19h0.986V94.517z M12.107,93.517c0-0.552,0.448-1,1-1h5c0.552,0,1,0.448,1,1v1
		h-7V93.517z M22.14,114.465l-0.001,0.025v0.026c0,0.552-0.448,1-1,1h-11c-0.552,0-1-0.448-1-1v-0.026l-0.001-0.026L8.139,95.517
		h14.982L22.14,114.465z"/>
	<rect x="15.107" y="97.517" fill="#415560" width="1" height="16"/>
	
		<rect x="4.118" y="105.033" transform="matrix(0.064 0.998 -0.998 0.064 116.6607 86.6886)" fill="#415560" width="16.002" height="1"/>
	
		<rect x="18.611" y="97.501" transform="matrix(0.998 0.0625 -0.0625 0.998 6.6322 -0.9881)" fill="#415560" width="1" height="16.032"/>
</g>
<path fill="#FFFFFF" d="M19.488,591.12v-1c0-1.104-0.896-2-2-2h-5c-1.104,0-2,0.896-2,2v1h-5v1h1.029l1.002,19c0,1.104,0.896,2,2,2
	h11c1.104,0,2-0.896,2-2l0.982-19h0.986v-1H19.488z M11.488,590.12c0-0.552,0.448-1,1-1h5c0.552,0,1,0.448,1,1v1h-7V590.12z
	 M11.513,610.152l-1.023-15.969l0.998-0.064l1.023,15.969L11.513,610.152z M15.488,610.12h-1v-16h1V610.12z M18.486,610.151
	l-0.998-0.062l1.009-16l0.998,0.062L18.486,610.151z"/>
<path fill="#415560" d="M22.646-84.673H8.607l-5.5,6v11h25v-11L22.646-84.673z M9.047-83.673h13.158l4.55,5h-7.647
	c0,1.872-1.627,3.386-3.5,3.386s-3.5-1.514-3.5-3.386H4.465L9.047-83.673z M27.107-68.673h-23v-9h7.123
	c0.479,1.914,2.289,3.386,4.377,3.386s3.898-1.472,4.377-3.386h7.123V-68.673z"/>
<path fill="#FFFFFF" d="M22.027,412.677H7.988l-5.5,6v11h25v-11L22.027,412.677z M8.428,413.677h13.158l4.55,5h-7.647
	c0,1.872-1.627,3.386-3.5,3.386s-3.5-1.514-3.5-3.386H3.846L8.428,413.677z"/>
<g>
	<path fill="#415560" d="M117.655-87.673h-24v7h1v16h22v-16h1V-87.673z M115.655-65.673h-20v-15h20V-65.673z M116.655-81.673h-22v-5
		h22V-81.673z"/>
	<path fill="#415560" d="M102.655-73.674h6c1.104,0,2-0.896,2-2s-0.896-2-2-2h-6c-1.104,0-2,0.896-2,2
		S101.551-73.674,102.655-73.674z M102.655-76.674h6c0.552,0,1,0.448,1,1s-0.448,1-1,1h-6c-0.552,0-1-0.448-1-1
		S102.104-76.674,102.655-76.674z"/>
</g>
<g>
	<polygon fill="#FFFFFF" points="93.497,409.677 93.497,416.677 94.497,416.677 95.497,416.677 115.497,416.677 116.497,416.677 
		117.497,416.677 117.497,409.677 	"/>
	<path fill="#FFFFFF" d="M95.497,417.677h-1v15h22v-15h-1H95.497z M102.497,420.676h6c0.552,0,1,0.448,1,1s-0.448,1-1,1h-6
		c-0.552,0-1-0.448-1-1S101.945,420.676,102.497,420.676z"/>
</g>
<path fill="#415560" d="M-425.021-79.677l-7.996-8.496h-0.729h-0.271h-9v24h18v-15.503L-425.021-79.677z M-433.018-86.759
	l6.086,6.586h-6.086V-86.759z M-442.018-65.173v-22h8v8h8v14H-442.018z"/>
<g>
	<polygon fill="#FFFFFF" points="-433.517,409.177 -433.517,417.177 -425.987,417.177 	"/>
	<polygon fill="#FFFFFF" points="-434.517,418.177 -434.517,409.177 -443.517,409.177 -443.517,433.177 -425.517,433.177 
		-425.517,418.177 	"/>
</g>
<path fill="#415560" d="M-432.242,184.645c3.722,0,6.75,3.028,6.75,6.75l-0.004,0.063c-0.003,0.05-0.006,0.1-0.008,0.149
	l-0.025,1.021l1.022,0.003c2.474,0.007,4.486,2.025,4.486,4.499c0,2.467-2.009,4.485-4.472,4.499h-18.527
	c-2.755-0.003-4.996-2.245-4.996-4.999c0-2.137,1.361-4.037,3.387-4.729l0.562-0.192l0.1-0.586c0.246-1.445,1.485-2.494,2.946-2.494
	c0.449,0,0.898,0.111,1.337,0.332l0.912,0.458l0.439-0.921C-437.214,186.158-434.825,184.645-432.242,184.645 M-432.242,183.645
	c-3.088,0-5.746,1.811-6.992,4.424c-0.54-0.271-1.141-0.438-1.786-0.438c-1.979,0-3.61,1.439-3.932,3.326
	c-2.362,0.807-4.063,3.04-4.063,5.675c0,3.312,2.685,5.996,5.995,5.999h18.528v-0.001c3.025-0.016,5.472-2.471,5.472-5.498
	c0-3.033-2.453-5.49-5.483-5.499c0.002-0.079,0.012-0.157,0.012-0.237C-424.492,187.115-427.961,183.645-432.242,183.645
	L-432.242,183.645z"/>
<path fill="#FFFFFF" d="M-425.003,689.922c0.002-0.079,0.012-0.157,0.012-0.237c0-4.28-3.47-7.75-7.75-7.75
	c-3.088,0-5.746,1.811-6.992,4.424c-0.54-0.271-1.141-0.438-1.786-0.438c-1.979,0-3.61,1.439-3.932,3.326
	c-2.362,0.807-4.063,3.04-4.063,5.675c0,3.312,2.685,5.996,5.995,5.999h18.528v-0.001c3.025-0.016,5.472-2.471,5.472-5.498
	C-419.52,692.388-421.973,689.931-425.003,689.922z"/>
<path fill="#415560" d="M-154.704,186.137v-4h-24v18h4v4h24v-18H-154.704z M-177.704,199.137v-16h22v3h-19v13H-177.704z
	 M-151.704,203.137h-22v-16h22V203.137z"/>
<g>
	<polygon fill="#FFFFFF" points="-150.76,684.427 -153.267,684.427 -154.267,684.427 -173.267,684.427 -173.267,697.427 
		-173.267,698.427 -173.267,699.173 -173.267,702.427 -149.267,702.427 -149.267,684.427 	"/>
	<polygon fill="#FFFFFF" points="-153.267,683.427 -153.267,680.427 -177.267,680.427 -177.267,698.427 -174.267,698.427 
		-174.267,697.427 -174.267,683.427 -154.267,683.427 	"/>
</g>
<g>
	<path fill="#415560" d="M-334.76,191.632c0.002-0.08,0.012-0.157,0.012-0.237c0-4.28-3.47-7.75-7.75-7.75
		c-3.084,0-5.739,1.806-6.986,4.413c-0.54-0.271-1.147-0.428-1.792-0.428c-1.979,0-3.619,1.44-3.939,3.329
		c-2.357,0.809-4.056,3.039-4.056,5.672c0,3.312,2.685,5.996,5.995,5.999h18.528v-0.001c3.024-0.016,5.472-2.471,5.472-5.498
		C-329.276,194.099-331.729,191.641-334.76,191.632z M-334.753,201.629l-0.219,0.001h-18.304c-2.755-0.003-4.996-2.245-4.996-4.999
		c0-2.134,1.358-4.033,3.38-4.727l0.562-0.192l0.099-0.586c0.245-1.446,1.487-2.496,2.954-2.496c0.467,0,0.919,0.108,1.342,0.321
		l0.912,0.458l0.439-0.92c1.118-2.336,3.507-3.845,6.085-3.845c3.723,0,6.75,3.027,6.75,6.75c0,0.021-0.002,0.042-0.004,0.062
		c-0.003,0.05-0.006,0.1-0.007,0.15l-0.025,1.021l1.021,0.004c2.474,0.007,4.486,2.025,4.486,4.499
		C-330.276,199.598-332.285,201.617-334.753,201.629z"/>
	<path fill="#415560" d="M-344.165,197.742c-1.716,0-3.111-1.396-3.111-3.111c0-1.679,1.338-3.041,3.002-3.101v1.459l3.346-1.932
		l-3.346-1.933v1.517c-2.157,0.06-3.891,1.818-3.891,3.989c0,2.209,1.791,4,4,4s4-1.791,4-4h-0.889
		C-341.054,196.346-342.449,197.742-344.165,197.742z"/>
</g>
<path fill="#FFFFFF" d="M-334.191,689.922c0.002-0.08,0.012-0.157,0.012-0.237c0-4.28-3.47-7.75-7.75-7.75
	c-3.084,0-5.739,1.806-6.986,4.413c-0.54-0.271-1.147-0.428-1.792-0.428c-1.979,0-3.619,1.44-3.939,3.329
	c-2.357,0.809-4.056,3.039-4.056,5.672c0,3.312,2.685,5.996,5.995,5.999h18.528v-0.001c3.024-0.016,5.472-2.471,5.472-5.498
	C-328.708,692.389-331.161,689.931-334.191,689.922z M-343.597,696.92c-2.209,0-4-1.791-4-4c0-2.171,1.733-3.93,3.891-3.989v-1.517
	l3.346,1.933l-3.346,1.932v-1.459c-1.664,0.06-3.002,1.422-3.002,3.101c0,1.716,1.396,3.111,3.111,3.111s3.111-1.396,3.111-3.111
	h0.889C-339.597,695.129-341.388,696.92-343.597,696.92z"/>
<path fill="#415560" d="M-77.787,196.642l4.471,8.995l11.424-25l-24.998,11.997L-77.787,196.642z M-77.521,195.667l-6.979-3.071
	l19.166-9.198L-77.521,195.667z M-73.354,203.327l-3.459-6.959l12.295-12.379L-73.354,203.327z"/>
<g>
	<polygon fill="#FFFFFF" points="-61.955,679.253 -85.594,690.599 -77.058,694.357 	"/>
	<polygon fill="#FFFFFF" points="-76.292,695.005 -72.02,703.601 -61.19,679.904 	"/>
</g>
<path fill="#415560" d="M205.235-83.673h-13v-1c0-1.104-0.896-2-2-2h-5c-1.104,0-2,0.896-2,2v3v3.5v10.5c0,1.104,0.896,2,2,2h20
	c1.104,0,2-0.896,2-2v-14C207.235-82.777,206.34-83.673,205.235-83.673z M184.235-84.673c0-0.552,0.449-1,1-1h5c0.551,0,1,0.448,1,1
	v1v1h1h13c0.551,0,1,0.448,1,1v1h-22v-1V-84.673z M205.235-66.673h-20c-0.551,0-1-0.448-1-1v-10.5v-1.5h22v12
	C206.235-67.121,205.786-66.673,205.235-66.673z"/>
<g>
	<path fill="#FFFFFF" d="M207.607,416.677v-1c0-1.104-0.896-2-2-2h-13v-1c0-1.104-0.896-2-2-2h-5c-1.104,0-2,0.896-2,2v3v1H207.607z
		"/>
	<path fill="#FFFFFF" d="M183.607,417.677v1.5v10.5c0,1.105,0.896,2,2,2h20c1.104,0,2-0.895,2-2v-12H183.607z"/>
</g>
<path fill="#415560" d="M-332.792,5.902h-22.967h-0.199h-0.601h-0.216v16h25v-16h-0.865H-332.792z M-333.792,6.902l-9.658,9.658
	c-0.439,0.44-1.209,0.44-1.648,0l-9.66-9.658H-333.792z M-355.774,7.3l6.493,6.491l-6.493,6.493V7.3z M-354.978,20.902l6.404-6.402
	l2.768,2.768c0.408,0.409,0.953,0.635,1.531,0.635s1.123-0.226,1.531-0.635l2.768-2.768l6.402,6.402H-354.978z M-332.774,20.287
	l-6.494-6.494l6.494-6.494V20.287z"/>
<g>
	<polygon fill="#FFFFFF" points="-348.71,509.631 -356.205,502.137 -356.205,517.127 	"/>
	<path fill="#FFFFFF" d="M-342.878,512.399l10.655-10.654h-22.962l10.656,10.654C-344.087,512.84-343.319,512.84-342.878,512.399z"
		/>
	<path fill="#FFFFFF" d="M-339.403,510.338l-2.768,2.768c-0.409,0.41-0.953,0.635-1.532,0.635s-1.123-0.225-1.532-0.635
		l-2.768-2.766l-7.405,7.404h23.41L-339.403,510.338z"/>
	<polygon fill="#FFFFFF" points="-338.696,509.631 -331.205,517.124 -331.205,502.141 	"/>
</g>
<g>
	<path fill="#415560" d="M-244.017,186.637h-4.136l-2.404-2.41c-0.003-0.002-0.005-0.005-0.008-0.008l-0.005-0.004
		c-0.361-0.357-0.857-0.578-1.405-0.578h-5c-0.581,0-1.099,0.252-1.465,0.646l-0.002-0.006l-2.354,2.359h-4.221
		c-1.104,0-2,0.896-2,2v12c0,1.104,0.896,2,2,2h21c1.104,0,2-0.896,2-2v-12C-242.017,187.533-242.913,186.637-244.017,186.637z
		 M-243.017,200.637c0,0.551-0.449,1-1,1h-21c-0.551,0-1-0.449-1-1v-12c0-0.551,0.449-1,1-1h4.221h0.414l0.294-0.293l1.21-1.213
		l0.025,0.073l1.147-1.241c0.194-0.211,0.454-0.326,0.73-0.326h5c0.265,0,0.515,0.103,0.71,0.297l2.404,2.409l0.293,0.294h0.415
		h4.136c0.551,0,1,0.449,1,1V200.637z"/>
	<path fill="#415560" d="M-254.517,187.637c-3.59,0-6.5,2.91-6.5,6.499c0,3.591,2.91,6.501,6.5,6.501s6.5-2.91,6.5-6.501
		C-248.017,190.547-250.927,187.637-254.517,187.637z M-254.517,199.637c-3.033,0-5.5-2.468-5.5-5.501
		c0-3.032,2.467-5.499,5.5-5.499s5.5,2.467,5.5,5.499C-249.017,197.169-251.484,199.637-254.517,199.637z"/>
	<path fill="#415560" d="M-254.517,189.637c-2.486,0-4.5,2.014-4.5,4.499s2.014,4.501,4.5,4.501s4.5-2.016,4.5-4.501
		S-252.031,189.637-254.517,189.637z M-254.517,197.637c-1.93,0-3.5-1.57-3.5-3.501c0-1.929,1.57-3.499,3.5-3.499
		s3.5,1.57,3.5,3.499C-251.017,196.067-252.587,197.637-254.517,197.637z"/>
</g>
<g>
	<path fill="#FFFFFF" d="M-243.487,684.927h-4.136l-2.404-2.41c-0.003-0.002-0.005-0.006-0.008-0.008l-0.005-0.004
		c-0.361-0.357-0.857-0.578-1.405-0.578h-5c-0.581,0-1.099,0.252-1.465,0.646l-0.002-0.006l-2.354,2.359h-4.221
		c-1.104,0-2,0.895-2,2v12c0,1.104,0.896,2,2,2h21c1.104,0,2-0.896,2-2v-12C-241.487,685.822-242.383,684.927-243.487,684.927z
		 M-253.987,697.927c-3.038,0-5.5-2.463-5.5-5.502c0-3.036,2.462-5.498,5.5-5.498c3.037,0,5.5,2.462,5.5,5.498
		C-248.487,695.464-250.95,697.927-253.987,697.927z"/>
	<circle fill="#FFFFFF" cx="-253.987" cy="692.427" r="4.5"/>
</g>
<path fill="#415560" d="M-243.47,2.833c-0.293-0.293-0.677-0.439-1.061-0.439c-0.385,0-0.769,0.146-1.061,0.439l-4.414,4.414V6.41
	h-16v19h19v-16h-0.92l4.455-4.456C-242.883,4.37-242.883,3.419-243.47,2.833z M-248.005,24.41h-17v-17h14.837l-7.837,7.836v2.164
	h2.081l7.919-7.92V24.41z M-244.177,4.247l-12.161,12.163h-0.667v-0.75l12.121-12.12c0.127-0.127,0.275-0.146,0.354-0.146
	c0.077,0,0.227,0.02,0.354,0.146c0.128,0.128,0.147,0.277,0.147,0.354S-244.049,4.12-244.177,4.247z"/>
<g>
	<path fill="#FFFFFF" d="M-242.94,498.676c-0.293-0.293-0.677-0.439-1.061-0.439c-0.385,0-0.769,0.146-1.061,0.439l-3.608,3.607
		l-0.498,0.498l-0.472,0.471l-2.873,2.875l-4.963,4.961v2.164h2.081l2.447-2.447l5.472-5.473l0.081-0.08h-0.001l0.256-0.256
		l4.199-4.199C-242.354,500.211-242.354,499.262-242.94,498.676z"/>
	<polygon fill="#FFFFFF" points="-246.769,506.04 -252.24,511.512 -254.688,513.959 -254.98,514.252 -255.395,514.252 
		-257.476,514.252 -258.476,514.252 -258.476,513.252 -258.476,511.088 -258.476,510.674 -258.183,510.381 -253.22,505.42 
		-250.347,502.545 -250.054,502.252 -265.476,502.252 -265.476,521.252 -246.476,521.252 -246.476,505.747 -246.689,505.961 	"/>
</g>
<path fill="#415560" d="M-156.37,3.444c-0.018,0.006-1.818,0.623-4.666,0.623c-1.451,0-2.834-0.295-4.17-0.579
	c-1.351-0.288-2.748-0.586-4.228-0.586c-2.95,0-3.95,0.634-4.056,0.706l-0.215,0.148V3.92v11.242v9.739h1V15.34
	c0.398-0.156,1.373-0.433,3.271-0.433c1.374,0,2.659,0.274,4.02,0.563c1.387,0.297,2.821,0.602,4.378,0.602
	c3.031,0,4.919-0.65,4.998-0.679l0.334-0.118V3.211L-156.37,3.444z M-156.704,14.549c-0.646,0.177-2.195,0.523-4.332,0.523
	c-1.451,0-2.834-0.294-4.17-0.579c-1.351-0.288-2.748-0.586-4.228-0.586c-1.62,0-2.651,0.19-3.271,0.376V4.333
	c0.4-0.154,1.379-0.431,3.271-0.431c1.374,0,2.659,0.274,4.02,0.563c1.387,0.296,2.821,0.602,4.378,0.602
	c2.014,0,3.522-0.287,4.332-0.488V14.549z"/>
<path fill="#FFFFFF" d="M-154.933,499.288c-0.018,0.006-1.818,0.623-4.666,0.623c-1.451,0-2.834-0.295-4.17-0.58
	c-1.351-0.287-2.748-0.586-4.228-0.586c-2.95,0-3.95,0.635-4.056,0.707l-0.215,0.148v0.164v11.242v9.738h1v-9.561
	c0.398-0.156,1.373-0.434,3.271-0.434c1.374,0,2.659,0.275,4.02,0.564c1.387,0.297,2.821,0.602,4.378,0.602
	c3.031,0,4.919-0.65,4.998-0.68l0.334-0.117v-12.064L-154.933,499.288z"/>
<g>
	<path fill="#415560" d="M195.235,1.402c-6.904,0-12.5,5.596-12.5,12.5s5.596,12.5,12.5,12.5s12.5-5.596,12.5-12.5
		S202.14,1.402,195.235,1.402z M195.235,25.402c-6.341,0-11.5-5.159-11.5-11.5s5.159-11.5,11.5-11.5s11.5,5.159,11.5,11.5
		S201.576,25.402,195.235,25.402z"/>
	<polygon fill="#415560" points="195.735,6.402 194.735,6.402 194.735,13.402 187.769,13.402 187.769,14.402 194.735,14.402 
		194.735,21.369 195.735,21.369 195.735,14.402 202.735,14.402 202.735,13.402 195.735,13.402 	"/>
</g>
<g>
	<path fill="#415560" d="M195.235,91.517c-6.904,0-12.5,5.596-12.5,12.5s5.596,12.5,12.5,12.5s12.5-5.596,12.5-12.5
		S202.14,91.517,195.235,91.517z M195.235,115.517c-6.341,0-11.5-5.159-11.5-11.5s5.159-11.5,11.5-11.5s11.5,5.159,11.5,11.5
		S201.576,115.517,195.235,115.517z"/>
	<rect x="188.769" y="103.517" fill="#415560" width="12.967" height="1"/>
</g>
<path fill="#FFFFFF" d="M195.607,497.245c-6.904,0-12.5,5.596-12.5,12.5s5.596,12.5,12.5,12.5s12.5-5.596,12.5-12.5
	S202.512,497.245,195.607,497.245z M203.107,510.245h-7v6.967h-1v-6.967h-6.967v-1h6.967v-7h1v7h7V510.245z"/>
<path fill="#FFFFFF" d="M195.607,588.12c-6.904,0-12.5,5.596-12.5,12.5s5.596,12.5,12.5,12.5s12.5-5.596,12.5-12.5
	S202.512,588.12,195.607,588.12z M202.107,601.12h-12.967v-1h12.967V601.12z"/>
<g>
	<circle fill="#415560" cx="105.655" cy="187.137" r="1.5"/>
	<polygon fill="#415560" points="107.155,190.637 107.155,190.069 107.155,189.637 104.155,189.637 104.155,190.637 
		105.155,190.637 105.155,198.637 104.155,198.637 104.155,199.637 108.155,199.637 108.155,198.637 107.155,198.637 	"/>
	<path fill="#415560" d="M105.655,180.637c-6.903,0-12.5,5.596-12.5,12.5s5.597,12.5,12.5,12.5s12.5-5.596,12.5-12.5
		S112.559,180.637,105.655,180.637z M105.655,204.637c-6.342,0-11.5-5.159-11.5-11.5s5.158-11.5,11.5-11.5s11.5,5.159,11.5,11.5
		S111.997,204.637,105.655,204.637z"/>
</g>
<path fill="#FFFFFF" d="M105.497,678.927c-6.903,0-12.5,5.596-12.5,12.5s5.597,12.5,12.5,12.5s12.5-5.596,12.5-12.5
	S112.4,678.927,105.497,678.927z M105.497,683.927c0.828,0,1.5,0.672,1.5,1.5s-0.672,1.5-1.5,1.5s-1.5-0.672-1.5-1.5
	S104.669,683.927,105.497,683.927z M107.997,697.927h-4v-1h1v-8h-1v-1h3v0.432v0.568v8h1V697.927z"/>
<path fill="#415560" d="M193.725,185.6v3.108v0.99l0.99,0.01c6.872,0.066,10.744,3.122,11.753,9.314
	c-3.775-4.365-8.129-4.367-11.743-4.368l-1-0.001v1.001v3.063l-9.26-6.56L193.725,185.6 M194.725,183.667l-11.989,8.492
	l11.989,8.493v-4.997c4.799,0.002,9.248,0.244,13.011,6.953c0-4.262-0.704-13.78-13.011-13.899V183.667L194.725,183.667z"/>
<path fill="#FFFFFF" d="M195.098,687v-5.043l-11.99,8.492l11.99,8.494v-4.998c4.799,0.002,9.248,0.244,13.01,6.953
	C208.107,696.636,207.404,687.119,195.098,687z"/>
<g>
	<polygon fill="#415560" points="109.37,102.999 108.663,102.292 105.655,105.299 102.647,102.292 101.94,102.999 104.948,106.006 
		101.931,109.023 102.638,109.73 105.655,106.713 108.673,109.73 109.38,109.023 106.362,106.006 	"/>
	<path fill="#415560" d="M118.155,95.519h-25v1h0.735l0.265,2c0,0.798,0.471,1.481,1.146,1.802l1.763,10.287
		c0.185,1.046,0.854,1.908,1.909,1.908h13.363c1.054,0,1.693-0.847,1.909-1.908l1.763-10.287c0.676-0.32,1.146-1.004,1.146-1.802
		l0.265-2h0.735V95.519z M113.263,110.422c-0.086,0.415-0.32,1.094-0.926,1.094H98.974c-0.681,0-0.879-0.828-0.924-1.077
		l-1.701-9.92h18.613L113.263,110.422z M116.164,98.387l-0.009,0.065v0.066c0,0.551-0.449,1-1,1h-19c-0.551,0-1-0.449-1-1v-0.066
		l-0.009-0.065l-0.248-1.868h21.514L116.164,98.387z"/>
</g>
<g>
	<path fill="#FFFFFF" d="M92.997,592.122v1h0.736l0.264,2c0,0.367,0.109,0.705,0.282,1h22.436c0.173-0.295,0.282-0.633,0.282-1
		l0.266-2h0.734v-1H92.997z"/>
	<path fill="#FFFFFF" d="M96.907,607.209c0.184,1.047,0.854,1.908,1.908,1.908h13.363c1.055,0,1.693-0.846,1.91-1.908l1.728-10.088
		H95.178L96.907,607.209z M101.782,599.602l0.707-0.707l3.008,3.006l3.008-3.006l0.707,0.707l-3.008,3.006l3.018,3.018l-0.707,0.707
		l-3.018-3.018l-3.018,3.018l-0.707-0.707l3.018-3.018L101.782,599.602z"/>
</g>
<path fill="#FFFFFF" d="M-62.891,409.674h-9c-0.369,0-0.706,0.111-1.001,0.287v19.722h-1v-19.722
	c-0.295-0.176-0.632-0.287-1.001-0.287h-9c-1.105,0-2,0.895-2,2v17.006c0,1.105,0.895,2,2,2h9c0.01,0,0.02-0.002,0.029-0.002
	c0.531,0.012,0.961,0.441,0.973,0.973v1.029h1v-0.555h0.01v-0.45c0-0.54,0.432-0.979,0.969-0.997c0.008,0,0.015,0.002,0.021,0.002h9
	c1.105,0,2-0.895,2-2v-17.006C-60.891,410.569-61.785,409.674-62.891,409.674z"/>
<g>
	<path fill="#415560" d="M8.607,188.139h14v-4h-14V188.139z M9.607,185.139h12v2h-12V185.139z"/>
	<path fill="#415560" d="M22.607,181.137h-14c-1.104,0-2,0.896-2,2v20c0,1.104,0.896,2,2,2h14c1.104,0,2-0.896,2-2v-20
		C24.607,182.033,23.712,181.137,22.607,181.137z M23.607,203.137c0,0.551-0.448,1-1,1h-14c-0.552,0-1-0.449-1-1v-20
		c0-0.551,0.448-1,1-1h14c0.552,0,1,0.449,1,1V203.137z"/>
	<polygon fill="#415560" points="9.607,192.137 9.607,190.137 9.607,189.137 8.607,189.137 8.607,193.137 12.607,193.137 
		12.607,192.137 11.607,192.137 	"/>
	<polygon fill="#415560" points="9.607,197.137 9.607,195.137 9.607,194.137 8.607,194.137 8.607,198.137 12.607,198.137 
		12.607,197.137 11.607,197.137 	"/>
	<polygon fill="#415560" points="9.607,202.137 9.607,200.137 9.607,199.137 8.607,199.137 8.607,203.137 12.607,203.137 
		12.607,202.137 11.607,202.137 	"/>
	<polygon fill="#415560" points="14.607,192.137 14.607,190.137 14.607,189.137 13.607,189.137 13.607,193.137 17.607,193.137 
		17.607,192.137 16.607,192.137 	"/>
	<polygon fill="#415560" points="19.607,192.137 19.607,190.137 19.607,189.137 18.607,189.137 18.607,193.137 22.607,193.137 
		22.607,192.137 21.607,192.137 	"/>
	<polygon fill="#415560" points="14.607,197.137 14.607,195.137 14.607,194.137 13.607,194.137 13.607,198.137 17.607,198.137 
		17.607,197.137 16.607,197.137 	"/>
	<polygon fill="#415560" points="14.607,202.137 14.607,200.137 14.607,199.137 13.607,199.137 13.607,203.137 17.607,203.137 
		17.607,202.137 16.607,202.137 	"/>
	<polygon fill="#415560" points="19.607,202.137 19.607,200.137 19.607,194.137 18.607,194.137 18.607,203.137 22.607,203.137 
		22.607,202.137 21.607,202.137 	"/>
</g>
</svg>
