<?xml version="1.0" encoding="utf-8"?>
<!-- Generator: Adobe Illustrator 16.0.0, SVG Export Plug-In . SVG Version: 6.00 Build 0)  -->
<!DOCTYPE svg PUBLIC "-//W3C//DTD SVG 1.1//EN" "http://www.w3.org/Graphics/SVG/1.1/DTD/svg11.dtd">
<svg version="1.1" id="Layer_1" xmlns="http://www.w3.org/2000/svg" xmlns:xlink="http://www.w3.org/1999/xlink" x="0px" y="0px"
	 width="23.618px" height="29px" viewBox="0 0 23.618 29" enable-background="new 0 0 23.618 29" xml:space="preserve">
<g display="none">
	<rect x="-607.298" y="-617.25" display="inline" fill="#181A27" width="960" height="308.657"/>
	<rect x="-607.298" y="-308.593" display="inline" fill="#A2E0F9" width="960" height="496.343"/>
	<rect x="-607.298" y="187.829" display="inline" fill="#5C7CCC" width="960" height="594.921"/>
	<rect x="-359.676" y="-533.612" display="inline" fill="none" width="472.973" height="180.918"/>
	<text transform="matrix(1 0 0 1 -174.4883 -462.6133)" display="inline"><tspan x="0" y="0" fill="#FFFFFF" font-family="'HelveticaNeueLTStd-Th'" font-size="100">32</tspan><tspan x="-83.22" y="56" fill="#FFFFFF" font-family="'HelveticaNeueLTStd-Lt'" font-size="48">Tab-Bar Icons</tspan><tspan x="-1.38" y="95" fill="#437CFF" font-family="'HelveticaNeueLTStd-Lt'" font-size="24">IOS 7 Style </tspan></text>
	<rect x="-359.676" y="-255.128" display="inline" fill="none" width="472.973" height="26.471"/>
	
		<text transform="matrix(1 0 0 1 -170.229 -238.0884)" display="inline" fill="#415560" font-family="'HelveticaNeueLTStd-Lt'" font-size="24">line icons</text>
	<g display="inline">
		<path fill="#415560" d="M-197.689-258.872c-6.904,0-12.5,5.596-12.5,12.5s5.596,12.5,12.5,12.5s12.5-5.596,12.5-12.5
			S-190.785-258.872-197.689-258.872z M-197.689-234.872c-6.341,0-11.5-5.159-11.5-11.5s5.159-11.5,11.5-11.5s11.5,5.159,11.5,11.5
			S-191.349-234.872-197.689-234.872z"/>
		<polygon fill="#415560" points="-198.403,-243.389 -197.696,-242.682 -196.989,-243.389 -195.813,-244.565 -192.04,-248.338 
			-192.747,-249.045 -197.696,-244.096 -202.623,-249.022 -203.33,-248.315 -200.506,-245.491 		"/>
	</g>
	<rect x="-359.676" y="240.132" display="inline" fill="none" width="472.973" height="26.471"/>
	
		<text transform="matrix(1 0 0 1 -167.6968 257.1719)" display="inline" fill="#FFFFFF" font-family="'HelveticaNeueLTStd-Lt'" font-size="24">full icons</text>
	<path display="inline" fill="#FFFFFF" d="M-197.689,236.388c-6.904,0-12.5,5.596-12.5,12.5s5.596,12.5,12.5,12.5
		s12.5-5.596,12.5-12.5S-190.785,236.388-197.689,236.388z M-195.813,250.695l-1.176,1.177l-0.707,0.707l-0.707-0.707l-2.103-2.104
		l-2.824-2.823l0.707-0.707l4.926,4.927l4.95-4.95l0.707,0.707L-195.813,250.695z"/>
	<rect x="-359.676" y="699.372" display="inline" fill="none" width="472.973" height="35.996"/>
	
		<text transform="matrix(1 0 0 1 -173.3843 716.4121)" display="inline" fill="#FFFFFF" font-family="'HelveticaNeueLTStd-Lt'" font-size="24">30 x 30 px</text>
</g>
<path fill="#415560" d="M-337.072-173.756l-5-5h-11v4h-6v22h16v-4h6V-173.756z M-342.072-177.342l3.586,3.586h-3.586V-177.342z
	 M-358.072-153.756v-20h9v5h5v15H-358.072z M-348.072-173.342l3.586,3.586h-3.586V-173.342z M-343.072-157.756v-12l-5-5h-4v-3h9v5h5
	v15H-343.072z"/>
<g>
	<polygon fill="#415560" points="-263.397,-165.095 -258.315,-160.013 -253.233,-165.095 -253.94,-165.802 -257.815,-161.927 
		-257.815,-177.756 -258.815,-177.756 -258.815,-161.927 -262.69,-165.802 	"/>
	<polygon fill="#415560" points="-255.815,-172.756 -255.815,-171.756 -249.815,-171.756 -249.815,-154.756 -266.815,-154.756 
		-266.815,-171.756 -260.815,-171.756 -260.815,-172.756 -267.815,-172.756 -267.815,-153.756 -248.815,-153.756 -248.815,-172.756 
			"/>
</g>
<g>
	<polygon fill="#415560" points="-163.42,-166.417 -168.502,-171.5 -173.584,-166.417 -172.877,-165.71 -169.002,-169.585 
		-169.002,-153.756 -168.002,-153.756 -168.002,-169.585 -164.127,-165.71 	"/>
	<polygon fill="#415560" points="-171.002,-158.756 -171.002,-159.756 -177.002,-159.756 -177.002,-176.756 -160.002,-176.756 
		-160.002,-159.756 -166.002,-159.756 -166.002,-158.756 -159.002,-158.756 -159.002,-177.756 -178.002,-177.756 -178.002,-158.756 
			"/>
</g>
<g>
	<polygon fill="#FFFFFF" points="-347.503,327.594 -342.503,327.594 -347.503,322.594 	"/>
	<polygon fill="#FFFFFF" points="-348.503,327.594 -348.503,322.594 -351.503,322.594 -352.503,322.594 -354.074,322.594 
		-358.503,322.594 -358.503,344.594 -342.503,344.594 -342.503,343.356 -342.503,340.594 -342.503,339.594 -342.503,328.594 
		-348.503,328.594 	"/>
	<polygon fill="#FFFFFF" points="-341.503,318.594 -341.503,323.594 -336.503,323.594 	"/>
	<polygon fill="#FFFFFF" points="-342.503,323.594 -342.503,318.594 -345.503,318.594 -346.503,318.594 -348.074,318.594 
		-352.503,318.594 -352.503,321.594 -351.503,321.594 -347.503,321.594 -347.089,321.594 -346.796,321.887 -341.796,326.887 
		-341.503,327.18 -341.503,327.594 -341.503,339.594 -341.503,340.594 -336.503,340.594 -336.503,339.356 -336.503,336.594 
		-336.503,335.594 -336.503,324.594 -342.503,324.594 	"/>
</g>
<polygon fill="#FFFFFF" points="-257.285,322.094 -257.285,332.923 -253.41,329.048 -252.703,329.755 -257.785,334.837 
	-262.867,329.755 -262.16,329.048 -258.285,332.923 -258.285,322.094 -267.285,322.094 -267.285,341.094 -248.285,341.094 
	-248.285,322.094 "/>
<polygon fill="#FFFFFF" points="-166.564,341.094 -166.564,330.265 -162.689,334.14 -161.982,333.433 -167.064,328.351 
	-172.146,333.433 -171.439,334.14 -167.564,330.265 -167.564,341.094 -176.564,341.094 -176.564,322.094 -157.564,322.094 
	-157.564,341.094 "/>
<path fill="#415560" d="M115.357-78.738h-10.33l-3.17-9.943l-3.171,9.943H88.357l8.37,6.116l-3.214,9.94l8.344-6.167l8.344,6.167
	l-3.214-9.94L115.357-78.738z M108.292-65.335l-5.84-4.318l-0.595-0.438l-0.595,0.438l-5.84,4.318l2.256-6.979l0.223-0.688
	l-0.584-0.427l-5.896-4.309h7.266h0.73l0.223-0.696l2.218-6.955l2.217,6.955l0.223,0.696h0.73h7.267l-5.896,4.309l-0.584,0.427
	l0.223,0.688L108.292-65.335z"/>
<g>
	<polygon fill="#FFFFFF" points="101.699,407.161 104.869,417.104 115.199,417.104 106.829,423.221 110.043,433.161 
		101.699,426.994 93.355,433.161 96.569,423.221 88.199,417.104 98.528,417.104 	"/>
</g>
<path fill="#415560" d="M-67.688-177.26h-9c-0.602,0-1.135,0.271-1.501,0.692c-0.366-0.421-0.899-0.692-1.501-0.692h-9
	c-1.105,0-2,0.896-2,2v17.008c0,1.104,0.895,2,2,2h9c0.01,0,0.02-0.004,0.029-0.004c0.531,0.014,0.961,0.442,0.973,0.974v1.03h1
	v-0.555h0.01v-0.451c0-0.541,0.432-0.98,0.969-0.997c0.008,0,0.015,0.003,0.021,0.003h9c1.105,0,2-0.896,2-2v-17.008
	C-65.688-176.364-66.583-177.26-67.688-177.26z M-89.69-158.252v-17.008c0-0.551,0.448-1,1-1h9c0.551,0,1,0.449,1,1v17.008
	c0,0.551-0.449,1-1,1h-9C-89.242-157.252-89.69-157.702-89.69-158.252z M-66.688-158.252c0,0.551-0.448,1-1,1h-9
	c-0.551,0-1-0.449-1-1v-0.409v-16.599c0-0.551,0.449-1,1-1h9c0.552,0,1,0.449,1,1V-158.252z"/>
<g>
	<path fill="#415560" d="M-78.189-84.682c-5.483,0-9.758,3.433-15,8.997c4.517,4.758,8.307,9.003,15,9.003s11.613-5.374,15-8.903
		C-66.656-79.718-71.576-84.682-78.189-84.682z M-78.189-67.682c-5.941,0-9.529-3.686-13.621-8.003
		c4.869-5.076,8.74-7.997,13.621-7.997c5.777,0,10.293,4.167,13.653,8.058C-67.84-72.179-72.314-67.682-78.189-67.682z"/>
	<path fill="#415560" d="M-78.189-81.681c-3.309,0-6,2.691-6,5.999s2.691,5.999,6,5.999s6-2.691,6-5.999
		S-74.881-81.681-78.189-81.681z M-78.189-70.683c-2.757,0-5-2.242-5-4.999s2.243-4.999,5-4.999s5,2.242,5,4.999
		S-75.433-70.683-78.189-70.683z"/>
	<path fill="#415560" d="M-78.189-79.702c-2.217,0-4.02,1.804-4.02,4.021c0,2.216,1.803,4.02,4.02,4.02s4.02-1.804,4.02-4.02
		C-74.17-77.898-75.973-79.702-78.189-79.702z M-78.189-72.662c-1.666,0-3.02-1.355-3.02-3.02c0-1.665,1.354-3.021,3.02-3.021
		s3.02,1.355,3.02,3.021C-75.17-74.018-76.523-72.662-78.189-72.662z"/>
</g>
<g>
	<path fill="#FFFFFF" d="M-77.189,411.161c-5.483,0-9.758,3.433-15,8.997c4.517,4.758,8.307,9.003,15,9.003s11.613-5.374,15-8.903
		C-65.656,416.125-70.576,411.161-77.189,411.161z M-77.189,426.16c-3.309,0-6-2.691-6-5.999s2.691-5.999,6-5.999s6,2.691,6,5.999
		S-73.881,426.16-77.189,426.16z"/>
	<path fill="#FFFFFF" d="M-77.189,416.141c-2.217,0-4.02,1.804-4.02,4.021c0,2.216,1.803,4.02,4.02,4.02s4.02-1.804,4.02-4.02
		C-73.17,417.944-74.973,416.141-77.189,416.141z"/>
</g>
<path fill="#415560" d="M-437.815-87.682c-6.628,0-12,5.372-12,12s5.372,12,12,12s12-5.372,12-12S-431.188-87.682-437.815-87.682z
	 M-437.815-86.682c6.065,0,11,4.935,11,11c0,2.669-0.957,5.118-2.545,7.026c-1.087-0.456-3.676-1.355-5.286-1.832
	c-0.137-0.043-0.158-0.049-0.158-0.618c0-0.47,0.193-0.942,0.382-1.343c0.204-0.436,0.446-1.167,0.533-1.823
	c0.243-0.282,0.575-0.839,0.787-1.899c0.187-0.936,0.1-1.275-0.024-1.596c-0.013-0.033-0.026-0.066-0.035-0.1
	c-0.047-0.219,0.017-1.358,0.177-2.242c0.11-0.606-0.028-1.896-0.862-2.963c-0.527-0.674-1.537-1.502-3.38-1.617l-1.011,0.001
	c-1.812,0.114-2.82,0.942-3.348,1.616c-0.836,1.066-0.975,2.356-0.863,2.963c0.16,0.884,0.225,2.023,0.178,2.238
	c-0.01,0.037-0.023,0.07-0.037,0.104c-0.123,0.32-0.211,0.66-0.023,1.596c0.213,1.061,0.543,1.617,0.787,1.899
	c0.086,0.656,0.328,1.388,0.533,1.823c0.15,0.318,0.22,0.751,0.22,1.363c0,0.568-0.021,0.576-0.149,0.616
	c-1.658,0.489-4.293,1.442-5.275,1.872c-1.618-1.916-2.599-4.387-2.599-7.085C-448.815-81.747-443.881-86.682-437.815-86.682z
	 M-445.491-67.817c1.126-0.459,3.367-1.259,4.842-1.695c0.857-0.27,0.857-0.992,0.857-1.572c0-0.48-0.032-1.189-0.314-1.789
	c-0.193-0.411-0.414-1.115-0.462-1.666c-0.012-0.129-0.072-0.248-0.17-0.334c-0.141-0.123-0.43-0.578-0.613-1.494
	c-0.145-0.725-0.084-0.883-0.023-1.037c0.025-0.064,0.049-0.129,0.068-0.202c0.121-0.438-0.014-1.881-0.159-2.681
	c-0.063-0.348,0.017-1.336,0.667-2.168c0.584-0.745,1.467-1.16,2.592-1.232l0.948-0.001c1.157,0.073,2.04,0.488,2.623,1.233
	c0.65,0.832,0.729,1.82,0.667,2.168c-0.146,0.8-0.279,2.242-0.16,2.68c0.021,0.074,0.045,0.139,0.07,0.203
	c0.059,0.154,0.121,0.312-0.024,1.037c-0.184,0.916-0.472,1.371-0.614,1.494c-0.097,0.086-0.157,0.205-0.168,0.334
	c-0.049,0.551-0.27,1.255-0.463,1.666c-0.222,0.471-0.477,1.098-0.477,1.769c0,0.58,0,1.302,0.867,1.575
	c1.411,0.417,3.665,1.191,4.856,1.66c-1.989,1.969-4.722,3.188-7.734,3.188C-440.8-64.682-443.507-65.881-445.491-67.817z"/>
<path fill="#FFFFFF" d="M-438.314,408.161c-6.628,0-12,5.372-12,12s5.372,12,12,12s12-5.372,12-12S-431.687,408.161-438.314,408.161
	z M-429.859,427.188c-1.087-0.456-3.676-1.355-5.286-1.832c-0.137-0.043-0.158-0.049-0.158-0.618c0-0.47,0.193-0.942,0.382-1.343
	c0.204-0.436,0.446-1.167,0.533-1.823c0.243-0.282,0.575-0.839,0.787-1.899c0.187-0.936,0.1-1.275-0.024-1.596
	c-0.013-0.033-0.026-0.066-0.035-0.1c-0.047-0.219,0.017-1.358,0.177-2.242c0.11-0.606-0.028-1.896-0.862-2.963
	c-0.527-0.674-1.537-1.502-3.38-1.617l-1.011,0.001c-1.812,0.114-2.82,0.942-3.348,1.616c-0.836,1.066-0.975,2.356-0.863,2.963
	c0.16,0.884,0.225,2.023,0.178,2.238c-0.01,0.037-0.023,0.07-0.037,0.104c-0.123,0.32-0.211,0.66-0.023,1.596
	c0.213,1.061,0.543,1.617,0.787,1.899c0.086,0.656,0.328,1.388,0.533,1.823c0.15,0.318,0.22,0.751,0.22,1.363
	c0,0.568-0.021,0.576-0.149,0.616c-1.658,0.489-4.293,1.442-5.275,1.872c-1.618-1.916-2.599-4.387-2.599-7.085
	c0-6.065,4.935-11,11-11s11,4.935,11,11C-427.314,422.83-428.271,425.279-429.859,427.188z"/>
<g>
	<path fill="#FFFFFF" d="M18.19,589.844h-14c-1.104,0-2,0.896-2,2v20c0,1.104,0.896,2,2,2h14c1.104,0,2-0.896,2-2v-20
		C20.19,590.739,19.295,589.844,18.19,589.844z M8.19,609.844h-3v-3h3V609.844z M8.19,605.843h-3v-3h3V605.843z M8.19,601.844h-3v-3
		h3V601.844z M12.69,609.844h-3v-3h3V609.844z M12.69,605.843h-3v-3h3V605.843z M12.69,601.844h-3v-3h3V601.844z M17.19,609.844h-3
		v-7.001h3V609.844z M17.19,601.844h-3v-3h3V601.844z M17.19,596.844h-12v-3h12V596.844z"/>
</g>
<path fill="#415560" d="M-437.815,1.934c-0.003,0-0.007,0-0.011,0c-0.002,0-0.003,0-0.005,0c-0.005,0-0.01,0.001-0.015,0.001
	c-6.891,0.017-12.47,5.606-12.47,12.499s5.579,12.482,12.47,12.499c0.005,0,0.01,0.001,0.015,0.001c0.002,0,0.003,0,0.005,0
	c0.004,0,0.008,0,0.011,0c6.902,0,12.5-5.598,12.5-12.5C-425.315,7.53-430.913,1.934-437.815,1.934z M-437.315,9.414
	c1.325-0.035,2.614-0.211,3.856-0.514c0.375,1.474,0.606,3.172,0.643,5.033h-4.499V9.414z M-437.315,8.414V3.013
	c1.349,0.373,2.714,2.171,3.584,4.926C-434.887,8.217-436.084,8.379-437.315,8.414z M-438.315,3.001v5.413
	c-1.241-0.035-2.449-0.2-3.612-0.482C-441.051,5.158-439.672,3.354-438.315,3.001z M-438.315,9.414v4.52h-4.53
	c0.036-1.863,0.27-3.564,0.644-5.039C-440.951,9.2-439.651,9.378-438.315,9.414z M-443.853,13.934h-5.45
	c0.11-2.57,1.068-4.926,2.602-6.791c1.113,0.613,2.294,1.115,3.531,1.49C-443.574,10.229-443.816,12.025-443.853,13.934z
	 M-443.853,14.934c0.036,1.908,0.278,3.705,0.683,5.3c-1.236,0.376-2.418,0.878-3.531,1.491c-1.533-1.865-2.491-4.221-2.602-6.791
	H-443.853z M-442.846,14.934h4.53v4.515c-1.336,0.036-2.636,0.214-3.888,0.521C-442.577,18.495-442.81,16.796-442.846,14.934z
	 M-438.315,20.447v5.419c-1.358-0.354-2.737-2.16-3.614-4.936C-440.766,20.647-439.557,20.482-438.315,20.447z M-437.315,25.854
	v-5.407c1.231,0.035,2.43,0.198,3.585,0.477C-434.601,23.682-435.967,25.481-437.315,25.854z M-437.315,19.448v-4.515h4.499
	c-0.036,1.859-0.268,3.557-0.641,5.028C-434.7,19.66-435.99,19.484-437.315,19.448z M-431.81,14.934h5.481
	c-0.11,2.57-1.067,4.926-2.601,6.791c-1.122-0.618-2.313-1.124-3.562-1.5C-432.088,18.631-431.846,16.838-431.81,14.934z
	 M-431.81,13.934c-0.036-1.906-0.278-3.701-0.682-5.295c1.247-0.377,2.438-0.882,3.56-1.499c1.535,1.866,2.492,4.222,2.604,6.794
	H-431.81z M-429.621,6.376c-0.994,0.53-2.045,0.967-3.141,1.299c-0.585-1.881-1.406-3.415-2.376-4.423
	C-433.009,3.762-431.107,4.863-429.621,6.376z M-440.533,3.261c-0.965,1.007-1.781,2.534-2.364,4.405
	c-1.086-0.331-2.127-0.765-3.112-1.29C-444.533,4.873-442.646,3.775-440.533,3.261z M-446.014,22.488
	c0.986-0.527,2.028-0.961,3.115-1.292c0.582,1.874,1.399,3.403,2.365,4.41C-442.647,25.092-444.535,23.992-446.014,22.488z
	 M-435.139,25.615c0.973-1.008,1.793-2.544,2.378-4.428c1.097,0.333,2.147,0.77,3.144,1.301
	C-431.105,24.002-433.008,25.105-435.139,25.615z"/>
<g>
	<path fill="#FFFFFF" d="M-438.314,498.536c-0.003,0-0.007,0-0.011,0c-0.002,0-0.003,0-0.005,0c-0.005,0-0.01,0.001-0.015,0.001
		c-6.891,0.017-12.47,5.606-12.47,12.499s5.579,12.482,12.47,12.499c0.005,0,0.01,0.001,0.015,0.001c0.002,0,0.003,0,0.005,0
		c0.004,0,0.008,0,0.011,0c6.902,0,12.5-5.598,12.5-12.5C-425.814,504.133-431.412,498.536-438.314,498.536z M-438.285,522.536
		l-0.009-0.001h-0.049c-6.325-0.015-11.472-5.174-11.472-11.499s5.146-11.484,11.47-11.499l0.058-0.001h0.004
		c6.327,0.018,11.469,5.17,11.469,11.5C-426.814,517.362-431.949,522.513-438.285,522.536z"/>
	<path fill="#FFFFFF" d="M-430.824,503.671c-1.358-1.383-3.097-2.39-5.043-2.855c0.887,0.921,1.638,2.323,2.172,4.043
		C-432.693,504.555-431.733,504.155-430.824,503.671z"/>
	<path fill="#FFFFFF" d="M-437.814,500.614v4.916c1.11-0.034,2.19-0.18,3.233-0.432
		C-435.368,502.61-436.596,500.981-437.814,500.614z"/>
	<path fill="#FFFFFF" d="M-434.332,505.979c-1.122,0.272-2.287,0.432-3.482,0.466v4.092h4.067
		C-433.783,508.853-433.992,507.313-434.332,505.979z"/>
	<path fill="#FFFFFF" d="M-442.073,505.093c1.05,0.254,2.14,0.403,3.259,0.438v-4.928
		C-440.041,500.952-441.28,502.587-442.073,505.093z"/>
	<path fill="#FFFFFF" d="M-433.747,511.536h-4.067v4.088c1.195,0.035,2.361,0.193,3.483,0.465
		C-433.992,514.756-433.783,513.218-433.747,511.536z"/>
	<path fill="#FFFFFF" d="M-432.827,510.536h5.009c-0.11-2.335-0.981-4.472-2.376-6.167c-1.024,0.563-2.113,1.025-3.254,1.37
		C-433.082,507.185-432.862,508.81-432.827,510.536z"/>
	<path fill="#FFFFFF" d="M-442.325,516.096c1.131-0.276,2.306-0.437,3.511-0.472v-4.088h-4.096
		C-442.875,513.222-442.664,514.761-442.325,516.096z"/>
	<path fill="#FFFFFF" d="M-442.91,510.536h4.096v-4.092c-1.205-0.035-2.38-0.195-3.51-0.471
		C-442.663,507.31-442.875,508.851-442.91,510.536z"/>
	<path fill="#FFFFFF" d="M-440.799,500.823c-1.932,0.471-3.656,1.474-5.006,2.848c0.9,0.48,1.853,0.877,2.845,1.18
		C-442.427,503.14-441.681,501.743-440.799,500.823z"/>
	<path fill="#FFFFFF" d="M-435.868,521.257c1.948-0.466,3.687-1.475,5.047-2.858c-0.91-0.485-1.87-0.885-2.873-1.188
		C-434.229,518.932-434.979,520.335-435.868,521.257z"/>
	<path fill="#FFFFFF" d="M-433.447,516.329c1.142,0.344,2.23,0.807,3.256,1.371c1.393-1.694,2.264-3.831,2.373-6.164h-5.009
		C-432.862,513.261-433.082,514.884-433.447,516.329z"/>
	<path fill="#FFFFFF" d="M-437.814,516.536v4.922c1.219-0.367,2.447-1.998,3.233-4.489
		C-435.623,516.718-436.704,516.571-437.814,516.536z"/>
	<path fill="#FFFFFF" d="M-443.209,505.733c-1.131-0.342-2.21-0.801-3.228-1.361c-1.393,1.694-2.265,3.831-2.374,6.164h4.979
		C-443.795,508.808-443.575,507.181-443.209,505.733z"/>
	<path fill="#FFFFFF" d="M-438.814,521.47v-4.934c-1.119,0.035-2.21,0.184-3.261,0.438
		C-441.282,519.482-440.042,521.118-438.814,521.47z"/>
	<path fill="#FFFFFF" d="M-443.831,511.536h-4.979c0.109,2.333,0.981,4.47,2.374,6.164c1.018-0.561,2.098-1.02,3.228-1.363
		C-443.575,514.892-443.795,513.265-443.831,511.536z"/>
	<path fill="#FFFFFF" d="M-445.808,518.398c1.351,1.375,3.076,2.38,5.009,2.851c-0.883-0.921-1.63-2.318-2.162-4.031
		C-443.954,517.521-444.906,517.917-445.808,518.398z"/>
</g>
<g>
	<path fill="#415560" d="M-348.065,4.934c-6.076,0-11,4.925-11,11c0,2.758,1.018,5.276,2.693,7.207l-2.572,3.154l0.773,0.632
		l2.494-3.057c1.977,1.896,4.656,3.062,7.611,3.062c2.963,0,5.648-1.173,7.627-3.077l2.492,3.075l0.777-0.63l-2.575-3.178
		c1.668-1.929,2.679-4.44,2.679-7.189C-337.065,9.859-341.991,4.934-348.065,4.934z M-348.065,25.933c-5.514,0-10-4.485-10-9.999
		s4.486-10,10-10c5.515,0,10,4.486,10,10S-342.551,25.933-348.065,25.933z"/>
	<path fill="#415560" d="M-353.095,1.934h-2.971c-2.762,0-5,2.238-5,5v3.009h1.422l6.549-6.586V1.934z M-354.095,2.944l-5.965,5.999
		h-0.006V6.934c0-2.206,1.795-4,4-4h1.971V2.944z"/>
	<path fill="#415560" d="M-340.079,1.934h-2.973v1.423l6.55,6.586h1.423V6.934C-335.079,4.172-337.318,1.934-340.079,1.934z
		 M-336.079,8.943h-0.007l-5.966-5.999v-0.01h1.973c2.205,0,4,1.794,4,4V8.943z"/>
	<polygon fill="#415560" points="-348.065,15.934 -353.578,15.934 -353.578,16.934 -347.065,16.934 -347.065,7.934 -348.065,7.934 	
		"/>
</g>
<g>
	<path fill="#FFFFFF" d="M-352.525,498.537h-2.971c-2.762,0-5,2.238-5,5v3.008h1.422l6.549-6.586V498.537z"/>
	<path fill="#FFFFFF" d="M-339.51,498.537h-2.973v1.422l6.55,6.586h1.423v-3.008C-334.51,500.775-336.749,498.537-339.51,498.537z"
		/>
	<path fill="#FFFFFF" d="M-347.496,501.537c-6.076,0-11,4.924-11,11c0,2.758,1.018,5.275,2.693,7.207l-2.572,3.154l0.773,0.631
		l2.494-3.057c1.977,1.896,4.656,3.062,7.611,3.062c2.963,0,5.648-1.172,7.627-3.076l2.492,3.074l0.777-0.629l-2.575-3.178
		c1.668-1.93,2.679-4.441,2.679-7.189C-336.496,506.461-341.422,501.537-347.496,501.537z M-346.496,513.537h-6.513v-1h5.513v-8h1
		V513.537z"/>
</g>
<g>
	<path fill="#415560" d="M-249.846,7.672l0.854-0.854l0.857,0.857l1.061-1.061l-2.422-2.422l-1.061,1.061l0.857,0.857l-0.854,0.854
		c-1.874-1.718-4.313-2.819-7.012-2.993V1.934h-1.5v2.038c-6,0.388-10.75,5.363-10.75,11.462c0,6.352,5.148,11.5,11.5,11.5
		s11.5-5.148,11.5-11.5C-246.815,12.438-247.97,9.719-249.846,7.672z M-258.315,25.934c-5.789,0-10.5-4.71-10.5-10.5
		s4.711-10.5,10.5-10.5s10.5,4.71,10.5,10.5S-252.526,25.934-258.315,25.934z"/>
	<path fill="#415560" d="M-257.815,14.025V7.434h-1v6.592c-0.581,0.206-1,0.756-1,1.408s0.419,1.202,1,1.408v2.092h1v-2.092
		c0.581-0.206,1-0.756,1-1.408S-257.234,14.231-257.815,14.025z"/>
</g>
<path fill="#FFFFFF" d="M-249.316,504.274l0.854-0.854l0.857,0.857l1.061-1.061l-2.422-2.422l-1.061,1.061l0.857,0.857l-0.854,0.854
	c-1.874-1.718-4.313-2.819-7.012-2.993v-2.038h-1.5v2.038c-6,0.388-10.75,5.363-10.75,11.462c0,6.352,5.148,11.5,11.5,11.5
	s11.5-5.148,11.5-11.5C-246.285,509.041-247.44,506.321-249.316,504.274z M-257.285,513.444v2.092h-1v-2.092
	c-0.581-0.206-1-0.756-1-1.408s0.419-1.202,1-1.408v-6.592h1v6.592c0.581,0.206,1,0.756,1,1.408S-256.704,513.238-257.285,513.444z"
	/>
<g>
	<path fill="#415560" d="M-169.734,15.301c0.02,0.024,0.047,0.045,0.068,0.068c0.275,0.342,0.691,0.564,1.164,0.564
		c0.828,0,1.5-0.671,1.5-1.5c0-0.44-0.193-0.832-0.494-1.106c-0.039-0.044-0.075-0.089-0.133-0.133l-6.062-4.612
		c-0.177-0.136-0.431-0.143-0.615,0c-0.221,0.17-0.262,0.486-0.092,0.707L-169.734,15.301z"/>
	<path fill="#415560" d="M-168.502,1.935c-0.164,0-0.324,0.019-0.486,0.024v0.519h-0.014v5.455h1V2.96
		c6.109,0.265,11,5.302,11,11.474c0,6.341-5.158,11.499-11.5,11.499s-11.5-5.158-11.5-11.499c0-3.171,1.29-6.046,3.373-8.128
		l-0.711-0.711c-2.263,2.262-3.662,5.387-3.662,8.839c0,6.903,5.596,12.499,12.5,12.499s12.5-5.596,12.5-12.499
		S-161.598,1.935-168.502,1.935z"/>
</g>
<path fill="#FFFFFF" d="M-167.064,498.536c-6.903,0-12.5,5.597-12.5,12.5s5.597,12.5,12.5,12.5s12.5-5.597,12.5-12.5
	S-160.161,498.536-167.064,498.536z M-172.868,505.185c0.185-0.143,0.438-0.136,0.615,0l6.062,4.612
	c0.058,0.044,0.094,0.089,0.133,0.133c0.301,0.274,0.494,0.666,0.494,1.106c0,0.829-0.672,1.5-1.5,1.5
	c-0.473,0-0.889-0.223-1.164-0.564c-0.021-0.023-0.049-0.044-0.068-0.068l-4.663-6.012
	C-173.13,505.671-173.089,505.354-172.868,505.185z M-167.064,522.521c-6.351,0-11.5-5.149-11.5-11.5
	c0-3.176,1.287-6.051,3.368-8.133l0.711,0.711c-1.901,1.902-3.079,4.527-3.079,7.422c0,5.789,4.71,10.5,10.5,10.5
	s10.5-4.711,10.5-10.5c0-5.621-4.443-10.211-10-10.475v3.969h-1v-3.969v-0.531v-0.482c0.166-0.007,0.332-0.012,0.5-0.012
	c6.351,0,11.5,5.148,11.5,11.5C-155.564,517.372-160.714,522.521-167.064,522.521z"/>
<g>
	<path fill="#415560" d="M-78.189,2.434c-6.627,0-12,5.373-12,12s5.373,12,12,12s12-5.373,12-12S-71.562,2.434-78.189,2.434z
		 M-78.189,25.434c-6.065,0-11-4.935-11-11s4.935-11,11-11s11,4.935,11,11S-72.124,25.434-78.189,25.434z"/>
	<polygon fill="#415560" points="-78.189,15.434 -84.189,15.434 -84.189,16.434 -77.189,16.434 -77.189,6.475 -78.189,6.475 	"/>
</g>
<path fill="#FFFFFF" d="M-77.189,499.036c-6.627,0-12,5.373-12,12s5.373,12,12,12s12-5.373,12-12S-70.562,499.036-77.189,499.036z
	 M-76.189,513.036h-7v-1h6v-8.959h1V513.036z"/>
<path fill="#FFFFFF" d="M23.618-65.11l-6.812-6.812C18.176-73.568,19-75.683,19-77.991c0-5.247-4.253-9.5-9.5-9.5
	c-5.246,0-9.5,4.253-9.5,9.5c0,5.246,4.254,9.5,9.5,9.5c2.309,0,4.423-0.824,6.069-2.193l6.812,6.812L23.618-65.11z M1-77.991
	c0-4.688,3.812-8.5,8.5-8.5c4.687,0,8.5,3.812,8.5,8.5c0,4.687-3.813,8.5-8.5,8.5C4.812-69.491,1-73.305,1-77.991z"/>
<g>
	<path fill="#FFFFFF" d="M16.188,423.921c1.369-1.646,2.193-3.761,2.193-6.069c0-5.247-4.253-9.5-9.5-9.5
		c-5.246,0-9.5,4.253-9.5,9.5c0,5.246,4.254,9.5,9.5,9.5c2.309,0,4.423-0.824,6.069-2.193l6.812,6.812L23,430.732L16.188,423.921z
		 M8.882,426.352c-4.688,0-8.5-3.813-8.5-8.5c0-4.688,3.812-8.5,8.5-8.5c4.687,0,8.5,3.812,8.5,8.5
		C17.382,422.538,13.568,426.352,8.882,426.352z"/>
	<circle fill="#FFFFFF" cx="8.882" cy="417.914" r="7.5"/>
</g>
<g>
	<path fill="#FFFFFF" d="M21.31,4.934h-5v-1c0-1.104-0.896-2-2-2h-5c-1.104,0-2,0.896-2,2v1h-5v1h1.029l1.002,19
		c0,1.104,0.896,2,2,2h11c1.104,0,2-0.896,2-2l0.982-19h0.986V4.934z M8.31,3.934c0-0.552,0.448-1,1-1h5c0.552,0,1,0.448,1,1v1h-7
		V3.934z M18.342,24.882l-0.001,0.025v0.026c0,0.552-0.448,1-1,1h-11c-0.552,0-1-0.448-1-1v-0.026L5.34,24.881L4.341,5.934h14.982
		L18.342,24.882z"/>
	<rect x="11.31" y="7.934" fill="#FFFFFF" width="1" height="16"/>
	
		<rect x="0.321" y="15.449" transform="matrix(0.064 0.998 -0.998 0.064 23.7056 6.6249)" fill="#FFFFFF" width="16.002" height="1"/>
	
		<rect x="14.813" y="7.918" transform="matrix(0.998 0.0625 -0.0625 0.998 1.0258 -0.9259)" fill="#FFFFFF" width="1" height="16.032"/>
</g>
<path fill="#FFFFFF" d="M15.69,501.536v-1c0-1.104-0.896-2-2-2h-5c-1.104,0-2,0.896-2,2v1h-5v1H2.72l1.002,19c0,1.104,0.896,2,2,2
	h11c1.104,0,2-0.896,2-2l0.982-19h0.986v-1H15.69z M7.69,500.536c0-0.552,0.448-1,1-1h5c0.552,0,1,0.448,1,1v1h-7V500.536z
	 M7.715,520.568L6.691,504.6l0.998-0.064l1.023,15.969L7.715,520.568z M11.69,520.536h-1v-16h1V520.536z M14.688,520.567
	l-0.998-0.062l1.009-16l0.998,0.062L14.688,520.567z"/>
<path fill="#415560" d="M18.849-174.256H4.81l-5.5,6v11h25v-11L18.849-174.256z M5.249-173.256h13.158l4.55,5H15.31
	c0,1.872-1.627,3.386-3.5,3.386s-3.5-1.514-3.5-3.386H0.667L5.249-173.256z M23.31-158.256h-23v-9h7.123
	c0.479,1.914,2.289,3.386,4.377,3.386s3.898-1.472,4.377-3.386h7.123V-158.256z"/>
<path fill="#FFFFFF" d="M18.229,323.094H4.19l-5.5,6v11h25v-11L18.229,323.094z M4.63,324.094h13.158l4.55,5H14.69
	c0,1.872-1.627,3.386-3.5,3.386s-3.5-1.514-3.5-3.386H0.048L4.63,324.094z"/>
<g>
	<path fill="#415560" d="M113.857-177.256h-24v7h1v16h22v-16h1V-177.256z M111.857-155.256h-20v-15h20V-155.256z M112.857-171.256
		h-22v-5h22V-171.256z"/>
	<path fill="#415560" d="M98.857-163.257h6c1.104,0,2-0.896,2-2s-0.896-2-2-2h-6c-1.104,0-2,0.896-2,2
		S97.753-163.257,98.857-163.257z M98.857-166.257h6c0.552,0,1,0.448,1,1s-0.448,1-1,1h-6c-0.552,0-1-0.448-1-1
		S98.306-166.257,98.857-166.257z"/>
</g>
<g>
	<polygon fill="#FFFFFF" points="89.699,320.094 89.699,327.094 90.699,327.094 91.699,327.094 111.699,327.094 112.699,327.094 
		113.699,327.094 113.699,320.094 	"/>
	<path fill="#FFFFFF" d="M91.699,328.094h-1v15h22v-15h-1H91.699z M98.699,331.093h6c0.552,0,1,0.448,1,1s-0.448,1-1,1h-6
		c-0.552,0-1-0.448-1-1S98.147,331.093,98.699,331.093z"/>
</g>
<path fill="#415560" d="M-428.819-169.26l-7.996-8.496h-0.729h-0.271h-9v24h18v-15.503L-428.819-169.26z M-436.815-176.342
	l6.086,6.586h-6.086V-176.342z M-445.815-154.756v-22h8v8h8v14H-445.815z"/>
<g>
	<polygon fill="#FFFFFF" points="-437.314,319.594 -437.314,327.594 -429.785,327.594 	"/>
	<polygon fill="#FFFFFF" points="-438.314,328.594 -438.314,319.594 -447.314,319.594 -447.314,343.594 -429.314,343.594 
		-429.314,328.594 	"/>
</g>
<path fill="#415560" d="M-436.04,95.062c3.722,0,6.75,3.028,6.75,6.75l-0.004,0.063c-0.003,0.05-0.006,0.1-0.008,0.149l-0.025,1.021
	l1.022,0.003c2.474,0.007,4.486,2.025,4.486,4.499c0,2.467-2.009,4.485-4.472,4.499h-18.527c-2.755-0.003-4.996-2.245-4.996-4.999
	c0-2.137,1.361-4.037,3.387-4.729l0.562-0.192l0.1-0.586c0.246-1.445,1.485-2.494,2.946-2.494c0.449,0,0.898,0.111,1.337,0.332
	l0.912,0.458l0.439-0.921C-441.012,96.574-438.623,95.062-436.04,95.062 M-436.04,94.062c-3.088,0-5.746,1.811-6.992,4.424
	c-0.54-0.271-1.141-0.438-1.786-0.438c-1.979,0-3.61,1.439-3.932,3.326c-2.362,0.807-4.063,3.04-4.063,5.675
	c0,3.312,2.685,5.996,5.995,5.999h18.528v-0.001c3.025-0.016,5.472-2.471,5.472-5.498c0-3.033-2.453-5.49-5.483-5.499
	c0.002-0.079,0.012-0.157,0.012-0.237C-428.29,97.531-431.759,94.062-436.04,94.062L-436.04,94.062z"/>
<path fill="#FFFFFF" d="M-428.801,600.339c0.002-0.079,0.012-0.157,0.012-0.237c0-4.28-3.47-7.75-7.75-7.75
	c-3.088,0-5.746,1.811-6.992,4.424c-0.54-0.271-1.141-0.438-1.786-0.438c-1.979,0-3.61,1.439-3.932,3.326
	c-2.362,0.807-4.063,3.04-4.063,5.675c0,3.312,2.685,5.996,5.995,5.999h18.528v-0.001c3.025-0.016,5.472-2.471,5.472-5.498
	C-423.317,602.805-425.771,600.348-428.801,600.339z"/>
<path fill="#415560" d="M-158.502,96.554v-4h-24v18h4v4h24v-18H-158.502z M-181.502,109.554v-16h22v3h-19v13H-181.502z
	 M-155.502,113.554h-22v-16h22V113.554z"/>
<g>
	<polygon fill="#FFFFFF" points="-154.558,594.844 -157.064,594.844 -158.064,594.844 -177.064,594.844 -177.064,607.844 
		-177.064,608.844 -177.064,609.59 -177.064,612.844 -153.064,612.844 -153.064,594.844 	"/>
	<polygon fill="#FFFFFF" points="-157.064,593.844 -157.064,590.844 -181.064,590.844 -181.064,608.844 -178.064,608.844 
		-178.064,607.844 -178.064,593.844 -158.064,593.844 	"/>
</g>
<g>
	<path fill="#415560" d="M-338.558,102.049c0.002-0.08,0.012-0.157,0.012-0.237c0-4.28-3.47-7.75-7.75-7.75
		c-3.084,0-5.739,1.806-6.986,4.413c-0.54-0.271-1.147-0.428-1.792-0.428c-1.979,0-3.619,1.44-3.939,3.329
		c-2.357,0.809-4.056,3.039-4.056,5.672c0,3.312,2.685,5.996,5.995,5.999h18.528v-0.001c3.024-0.016,5.472-2.471,5.472-5.498
		C-333.074,104.516-335.527,102.058-338.558,102.049z M-338.551,112.046l-0.219,0.001h-18.304c-2.755-0.003-4.996-2.245-4.996-4.999
		c0-2.134,1.358-4.033,3.38-4.727l0.562-0.192l0.099-0.586c0.245-1.446,1.487-2.496,2.954-2.496c0.467,0,0.919,0.108,1.342,0.321
		l0.912,0.458l0.439-0.92c1.118-2.336,3.507-3.845,6.085-3.845c3.723,0,6.75,3.027,6.75,6.75c0,0.021-0.002,0.042-0.004,0.062
		c-0.003,0.05-0.006,0.1-0.007,0.15l-0.025,1.021l1.021,0.004c2.474,0.007,4.486,2.025,4.486,4.499
		C-334.074,110.015-336.083,112.033-338.551,112.046z"/>
	<path fill="#415560" d="M-347.963,108.158c-1.716,0-3.111-1.396-3.111-3.111c0-1.679,1.338-3.041,3.002-3.101v1.459l3.346-1.932
		l-3.346-1.933v1.517c-2.157,0.06-3.891,1.818-3.891,3.989c0,2.209,1.791,4,4,4s4-1.791,4-4h-0.889
		C-344.852,106.763-346.247,108.158-347.963,108.158z"/>
</g>
<path fill="#FFFFFF" d="M-337.989,600.339c0.002-0.08,0.012-0.157,0.012-0.237c0-4.28-3.47-7.75-7.75-7.75
	c-3.084,0-5.739,1.806-6.986,4.413c-0.54-0.271-1.147-0.428-1.792-0.428c-1.979,0-3.619,1.44-3.939,3.329
	c-2.357,0.809-4.056,3.039-4.056,5.672c0,3.312,2.685,5.996,5.995,5.999h18.528v-0.001c3.024-0.016,5.472-2.471,5.472-5.498
	C-332.506,602.806-334.959,600.348-337.989,600.339z M-347.395,607.337c-2.209,0-4-1.791-4-4c0-2.171,1.733-3.93,3.891-3.989v-1.517
	l3.346,1.933l-3.346,1.932v-1.459c-1.664,0.06-3.002,1.422-3.002,3.101c0,1.716,1.396,3.111,3.111,3.111s3.111-1.396,3.111-3.111
	h0.889C-343.395,605.546-345.186,607.337-347.395,607.337z"/>
<path fill="#415560" d="M-81.585,107.059l4.471,8.995l11.424-25l-24.998,11.997L-81.585,107.059z M-81.319,106.083l-6.979-3.071
	l19.166-9.198L-81.319,106.083z M-77.151,113.743l-3.459-6.959l12.295-12.379L-77.151,113.743z"/>
<g>
	<polygon fill="#FFFFFF" points="-65.753,589.67 -89.392,601.016 -80.855,604.773 	"/>
	<polygon fill="#FFFFFF" points="-80.09,605.422 -75.817,614.018 -64.988,590.32 	"/>
</g>
<path fill="#415560" d="M201.438-173.256h-13v-1c0-1.104-0.896-2-2-2h-5c-1.104,0-2,0.896-2,2v3v3.5v10.5c0,1.104,0.896,2,2,2h20
	c1.104,0,2-0.896,2-2v-14C203.438-172.361,202.542-173.256,201.438-173.256z M180.438-174.256c0-0.552,0.449-1,1-1h5
	c0.551,0,1,0.448,1,1v1v1h1h13c0.551,0,1,0.448,1,1v1h-22v-1V-174.256z M201.438-156.256h-20c-0.551,0-1-0.448-1-1v-10.5v-1.5h22v12
	C202.438-156.705,201.988-156.256,201.438-156.256z"/>
<g>
	<path fill="#FFFFFF" d="M203.81,327.094v-1c0-1.104-0.896-2-2-2h-13v-1c0-1.104-0.896-2-2-2h-5c-1.104,0-2,0.896-2,2v3v1H203.81z"
		/>
	<path fill="#FFFFFF" d="M179.81,328.094v1.5v10.5c0,1.105,0.896,2,2,2h20c1.104,0,2-0.895,2-2v-12H179.81z"/>
</g>
<path fill="#415560" d="M-336.59-83.682h-22.967h-0.199h-0.601h-0.216v16h25v-16h-0.865H-336.59z M-337.59-82.682l-9.658,9.658
	c-0.439,0.44-1.209,0.44-1.648,0l-9.66-9.658H-337.59z M-359.572-82.283l6.493,6.491l-6.493,6.493V-82.283z M-358.775-68.682
	l6.404-6.402l2.768,2.768c0.408,0.409,0.953,0.635,1.531,0.635s1.123-0.226,1.531-0.635l2.768-2.768l6.402,6.402H-358.775z
	 M-336.572-69.297l-6.494-6.494l6.494-6.494V-69.297z"/>
<g>
	<polygon fill="#FFFFFF" points="-352.508,420.048 -360.003,412.554 -360.003,427.544 	"/>
	<path fill="#FFFFFF" d="M-346.676,422.815l10.655-10.654h-22.962l10.656,10.654C-347.885,423.257-347.117,423.257-346.676,422.815z
		"/>
	<path fill="#FFFFFF" d="M-343.201,420.755l-2.768,2.768c-0.409,0.41-0.953,0.635-1.532,0.635s-1.123-0.225-1.532-0.635
		l-2.768-2.766l-7.405,7.404h23.41L-343.201,420.755z"/>
	<polygon fill="#FFFFFF" points="-342.494,420.048 -335.003,427.54 -335.003,412.558 	"/>
</g>
<g>
	<path fill="#415560" d="M-247.815,97.054h-4.136l-2.404-2.41c-0.003-0.002-0.005-0.005-0.008-0.008l-0.005-0.004
		c-0.361-0.357-0.857-0.578-1.405-0.578h-5c-0.581,0-1.099,0.252-1.465,0.646l-0.002-0.006l-2.354,2.359h-4.221
		c-1.104,0-2,0.896-2,2v12c0,1.104,0.896,2,2,2h21c1.104,0,2-0.896,2-2v-12C-245.815,97.949-246.71,97.054-247.815,97.054z
		 M-246.815,111.054c0,0.551-0.449,1-1,1h-21c-0.551,0-1-0.449-1-1v-12c0-0.551,0.449-1,1-1h4.221h0.414l0.294-0.293l1.21-1.213
		l0.025,0.073l1.147-1.241c0.194-0.211,0.454-0.326,0.73-0.326h5c0.265,0,0.515,0.103,0.71,0.297l2.404,2.409l0.293,0.294h0.415
		h4.136c0.551,0,1,0.449,1,1V111.054z"/>
	<path fill="#415560" d="M-258.315,98.054c-3.59,0-6.5,2.91-6.5,6.499c0,3.591,2.91,6.501,6.5,6.501s6.5-2.91,6.5-6.501
		C-251.815,100.964-254.725,98.054-258.315,98.054z M-258.315,110.054c-3.033,0-5.5-2.468-5.5-5.501c0-3.032,2.467-5.499,5.5-5.499
		s5.5,2.467,5.5,5.499C-252.815,107.586-255.282,110.054-258.315,110.054z"/>
	<path fill="#415560" d="M-258.315,100.054c-2.486,0-4.5,2.014-4.5,4.499s2.014,4.501,4.5,4.501s4.5-2.016,4.5-4.501
		S-255.829,100.054-258.315,100.054z M-258.315,108.054c-1.93,0-3.5-1.57-3.5-3.501c0-1.929,1.57-3.499,3.5-3.499
		s3.5,1.57,3.5,3.499C-254.815,106.483-256.385,108.054-258.315,108.054z"/>
</g>
<g>
	<path fill="#FFFFFF" d="M-247.285,595.344h-4.136l-2.404-2.41c-0.003-0.002-0.005-0.006-0.008-0.008l-0.005-0.004
		c-0.361-0.357-0.857-0.578-1.405-0.578h-5c-0.581,0-1.099,0.252-1.465,0.646l-0.002-0.006l-2.354,2.359h-4.221
		c-1.104,0-2,0.895-2,2v12c0,1.104,0.896,2,2,2h21c1.104,0,2-0.896,2-2v-12C-245.285,596.238-246.181,595.344-247.285,595.344z
		 M-257.785,608.344c-3.038,0-5.5-2.463-5.5-5.502c0-3.036,2.462-5.498,5.5-5.498c3.037,0,5.5,2.462,5.5,5.498
		C-252.285,605.881-254.748,608.344-257.785,608.344z"/>
	<circle fill="#FFFFFF" cx="-257.785" cy="602.844" r="4.5"/>
</g>
<path fill="#415560" d="M-247.268-86.75c-0.293-0.293-0.677-0.439-1.061-0.439c-0.385,0-0.769,0.146-1.061,0.439l-4.414,4.414
	v-0.837h-16v19h19v-16h-0.92l4.455-4.456C-246.681-85.213-246.681-86.165-247.268-86.75z M-251.803-65.173h-17v-17h14.837
	l-7.837,7.836v2.164h2.081l7.919-7.92V-65.173z M-247.975-85.336l-12.161,12.163h-0.667v-0.75l12.121-12.12
	c0.127-0.127,0.275-0.146,0.354-0.146c0.077,0,0.227,0.02,0.354,0.146c0.128,0.128,0.147,0.277,0.147,0.354
	S-247.847-85.463-247.975-85.336z"/>
<g>
	<path fill="#FFFFFF" d="M-246.738,409.093c-0.293-0.293-0.677-0.439-1.061-0.439c-0.385,0-0.769,0.146-1.061,0.439l-3.608,3.607
		l-0.498,0.498l-0.472,0.471l-2.873,2.875l-4.963,4.961v2.164h2.081l2.447-2.447l5.472-5.473l0.081-0.08h-0.001l0.256-0.256
		l4.199-4.199C-246.151,410.628-246.151,409.679-246.738,409.093z"/>
	<polygon fill="#FFFFFF" points="-250.566,416.456 -256.038,421.929 -258.485,424.376 -258.778,424.669 -259.192,424.669 
		-261.273,424.669 -262.273,424.669 -262.273,423.669 -262.273,421.505 -262.273,421.091 -261.98,420.798 -257.018,415.837 
		-254.145,412.962 -253.852,412.669 -269.273,412.669 -269.273,431.669 -250.273,431.669 -250.273,416.163 -250.487,416.378 	"/>
</g>
<path fill="#415560" d="M-160.168-86.14c-0.018,0.006-1.818,0.623-4.666,0.623c-1.451,0-2.834-0.295-4.17-0.579
	c-1.351-0.288-2.748-0.586-4.228-0.586c-2.95,0-3.95,0.634-4.056,0.706l-0.215,0.148v0.164v11.242v9.739h1v-9.562
	c0.398-0.156,1.373-0.433,3.271-0.433c1.374,0,2.659,0.274,4.02,0.563c1.387,0.297,2.821,0.602,4.378,0.602
	c3.031,0,4.919-0.65,4.998-0.679l0.334-0.118v-12.064L-160.168-86.14z M-160.502-75.034c-0.646,0.177-2.195,0.523-4.332,0.523
	c-1.451,0-2.834-0.294-4.17-0.579c-1.351-0.288-2.748-0.586-4.228-0.586c-1.62,0-2.651,0.19-3.271,0.376v-9.951
	c0.4-0.154,1.379-0.431,3.271-0.431c1.374,0,2.659,0.274,4.02,0.563c1.387,0.296,2.821,0.602,4.378,0.602
	c2.014,0,3.522-0.287,4.332-0.488V-75.034z"/>
<path fill="#FFFFFF" d="M-158.73,409.704c-0.018,0.006-1.818,0.623-4.666,0.623c-1.451,0-2.834-0.295-4.17-0.58
	c-1.351-0.287-2.748-0.586-4.228-0.586c-2.95,0-3.95,0.635-4.056,0.707l-0.215,0.148v0.164v11.242v9.738h1v-9.561
	c0.398-0.156,1.373-0.434,3.271-0.434c1.374,0,2.659,0.275,4.02,0.564c1.387,0.297,2.821,0.602,4.378,0.602
	c3.031,0,4.919-0.65,4.998-0.68l0.334-0.117v-12.064L-158.73,409.704z"/>
<g>
	<path fill="#415560" d="M191.438-88.182c-6.904,0-12.5,5.596-12.5,12.5s5.596,12.5,12.5,12.5s12.5-5.596,12.5-12.5
		S198.342-88.182,191.438-88.182z M191.438-64.182c-6.341,0-11.5-5.159-11.5-11.5s5.159-11.5,11.5-11.5s11.5,5.159,11.5,11.5
		S197.778-64.182,191.438-64.182z"/>
	<polygon fill="#415560" points="191.938,-83.182 190.938,-83.182 190.938,-76.182 183.971,-76.182 183.971,-75.182 
		190.938,-75.182 190.938,-68.215 191.938,-68.215 191.938,-75.182 198.938,-75.182 198.938,-76.182 191.938,-76.182 	"/>
</g>
<g>
	<path fill="#415560" d="M191.438,1.934c-6.904,0-12.5,5.596-12.5,12.5s5.596,12.5,12.5,12.5s12.5-5.596,12.5-12.5
		S198.342,1.934,191.438,1.934z M191.438,25.934c-6.341,0-11.5-5.159-11.5-11.5s5.159-11.5,11.5-11.5s11.5,5.159,11.5,11.5
		S197.778,25.934,191.438,25.934z"/>
	<rect x="184.971" y="13.934" fill="#415560" width="12.967" height="1"/>
</g>
<path fill="#FFFFFF" d="M191.81,407.661c-6.904,0-12.5,5.596-12.5,12.5s5.596,12.5,12.5,12.5s12.5-5.596,12.5-12.5
	S198.714,407.661,191.81,407.661z M199.31,420.661h-7v6.967h-1v-6.967h-6.967v-1h6.967v-7h1v7h7V420.661z"/>
<path fill="#FFFFFF" d="M191.81,498.536c-6.904,0-12.5,5.596-12.5,12.5s5.596,12.5,12.5,12.5s12.5-5.596,12.5-12.5
	S198.714,498.536,191.81,498.536z M198.31,511.536h-12.967v-1h12.967V511.536z"/>
<g>
	<circle fill="#415560" cx="101.857" cy="97.554" r="1.5"/>
	<polygon fill="#415560" points="103.357,101.054 103.357,100.485 103.357,100.054 100.357,100.054 100.357,101.054 
		101.357,101.054 101.357,109.054 100.357,109.054 100.357,110.054 104.357,110.054 104.357,109.054 103.357,109.054 	"/>
	<path fill="#415560" d="M101.857,91.054c-6.903,0-12.5,5.596-12.5,12.5s5.597,12.5,12.5,12.5s12.5-5.596,12.5-12.5
		S108.761,91.054,101.857,91.054z M101.857,115.054c-6.342,0-11.5-5.159-11.5-11.5s5.158-11.5,11.5-11.5s11.5,5.159,11.5,11.5
		S108.199,115.054,101.857,115.054z"/>
</g>
<path fill="#FFFFFF" d="M101.699,589.344c-6.903,0-12.5,5.596-12.5,12.5s5.597,12.5,12.5,12.5s12.5-5.596,12.5-12.5
	S108.603,589.344,101.699,589.344z M101.699,594.344c0.828,0,1.5,0.672,1.5,1.5s-0.672,1.5-1.5,1.5s-1.5-0.672-1.5-1.5
	S100.871,594.344,101.699,594.344z M104.199,608.344h-4v-1h1v-8h-1v-1h3v0.432v0.568v8h1V608.344z"/>
<path fill="#415560" d="M189.927,96.017v3.108v0.99l0.99,0.01c6.872,0.066,10.744,3.122,11.753,9.314
	c-3.775-4.365-8.129-4.367-11.743-4.368l-1-0.001v1.001v3.063l-9.26-6.56L189.927,96.017 M190.927,94.083l-11.989,8.492
	l11.989,8.493v-4.997c4.799,0.002,9.248,0.244,13.011,6.953c0-4.262-0.704-13.78-13.011-13.899V94.083L190.927,94.083z"/>
<path fill="#FFFFFF" d="M191.3,597.416v-5.043l-11.99,8.492l11.99,8.494v-4.998c4.799,0.002,9.248,0.244,13.01,6.953
	C204.31,607.053,203.606,597.535,191.3,597.416z"/>
<g>
	<polygon fill="#415560" points="105.572,13.416 104.865,12.708 101.857,15.715 98.85,12.708 98.143,13.416 101.15,16.422 
		98.133,19.44 98.84,20.147 101.857,17.129 104.875,20.147 105.582,19.44 102.564,16.422 	"/>
	<path fill="#415560" d="M114.357,5.935h-25v1h0.735l0.265,2c0,0.798,0.471,1.481,1.146,1.802l1.763,10.287
		c0.185,1.046,0.854,1.908,1.909,1.908h13.363c1.054,0,1.693-0.847,1.909-1.908l1.763-10.287c0.676-0.32,1.146-1.004,1.146-1.802
		l0.265-2h0.735V5.935z M109.465,20.838c-0.086,0.415-0.32,1.094-0.926,1.094H95.176c-0.681,0-0.879-0.828-0.924-1.077l-1.701-9.92
		h18.613L109.465,20.838z M112.366,8.803l-0.009,0.065v0.066c0,0.551-0.449,1-1,1h-19c-0.551,0-1-0.449-1-1V8.869l-0.009-0.065
		l-0.248-1.868h21.514L112.366,8.803z"/>
</g>
<g>
	<path fill="#FFFFFF" d="M89.199,502.538v1h0.736l0.264,2c0,0.367,0.109,0.705,0.282,1h22.436c0.173-0.295,0.282-0.633,0.282-1
		l0.266-2h0.734v-1H89.199z"/>
	<path fill="#FFFFFF" d="M93.109,517.626c0.184,1.047,0.854,1.908,1.908,1.908h13.363c1.055,0,1.693-0.846,1.91-1.908l1.728-10.088
		H91.38L93.109,517.626z M97.984,510.019l0.707-0.707l3.008,3.006l3.008-3.006l0.707,0.707l-3.008,3.006l3.018,3.018l-0.707,0.707
		l-3.018-3.018l-3.018,3.018l-0.707-0.707l3.018-3.018L97.984,510.019z"/>
</g>
<path fill="#FFFFFF" d="M-66.688,320.091h-9c-0.369,0-0.706,0.111-1.001,0.287V340.1h-1v-19.722
	c-0.295-0.176-0.632-0.287-1.001-0.287h-9c-1.105,0-2,0.895-2,2v17.006c0,1.105,0.895,2,2,2h9c0.01,0,0.02-0.002,0.029-0.002
	c0.531,0.012,0.961,0.441,0.973,0.973v1.029h1v-0.555h0.01v-0.45c0-0.54,0.432-0.979,0.969-0.997c0.008,0,0.015,0.002,0.021,0.002h9
	c1.105,0,2-0.895,2-2v-17.006C-64.688,320.985-65.583,320.091-66.688,320.091z"/>
<g>
	<path fill="#415560" d="M4.81,98.556h14v-4h-14V98.556z M5.81,95.556h12v2h-12V95.556z"/>
	<path fill="#415560" d="M18.81,91.554h-14c-1.104,0-2,0.896-2,2v20c0,1.104,0.896,2,2,2h14c1.104,0,2-0.896,2-2v-20
		C20.81,92.449,19.914,91.554,18.81,91.554z M19.81,113.554c0,0.551-0.448,1-1,1h-14c-0.552,0-1-0.449-1-1v-20c0-0.551,0.448-1,1-1
		h14c0.552,0,1,0.449,1,1V113.554z"/>
	<polygon fill="#415560" points="5.81,102.554 5.81,100.554 5.81,99.554 4.81,99.554 4.81,103.554 8.81,103.554 8.81,102.554 
		7.81,102.554 	"/>
	<polygon fill="#415560" points="5.81,107.554 5.81,105.554 5.81,104.554 4.81,104.554 4.81,108.554 8.81,108.554 8.81,107.554 
		7.81,107.554 	"/>
	<polygon fill="#415560" points="5.81,112.554 5.81,110.554 5.81,109.554 4.81,109.554 4.81,113.554 8.81,113.554 8.81,112.554 
		7.81,112.554 	"/>
	<polygon fill="#415560" points="10.81,102.554 10.81,100.554 10.81,99.554 9.81,99.554 9.81,103.554 13.81,103.554 13.81,102.554 
		12.81,102.554 	"/>
	<polygon fill="#415560" points="15.81,102.554 15.81,100.554 15.81,99.554 14.81,99.554 14.81,103.554 18.81,103.554 
		18.81,102.554 17.81,102.554 	"/>
	<polygon fill="#415560" points="10.81,107.554 10.81,105.554 10.81,104.554 9.81,104.554 9.81,108.554 13.81,108.554 
		13.81,107.554 12.81,107.554 	"/>
	<polygon fill="#415560" points="10.81,112.554 10.81,110.554 10.81,109.554 9.81,109.554 9.81,113.554 13.81,113.554 
		13.81,112.554 12.81,112.554 	"/>
	<polygon fill="#415560" points="15.81,112.554 15.81,110.554 15.81,104.554 14.81,104.554 14.81,113.554 18.81,113.554 
		18.81,112.554 17.81,112.554 	"/>
</g>
</svg>
